<svg width="137" height="137" viewBox="0 0 137 137" fill="none" xmlns="http://www.w3.org/2000/svg">
<path d="M58.5 5.7735C64.688 2.20085 72.312 2.20085 78.5 5.7735L117.823 28.4765C124.011 32.0492 127.823 38.6517 127.823 45.797V91.203C127.823 98.3483 124.011 104.951 117.823 108.524L78.5 131.227C72.312 134.799 64.688 134.799 58.5 131.227L19.1773 108.523C12.9892 104.951 9.17726 98.3483 9.17726 91.203V45.797C9.17726 38.6517 12.9892 32.0492 19.1773 28.4765L58.5 5.7735Z" fill="#192347"/>
<g clip-path="url(#clip0)">
<path d="M92.449 41.3125L69.0546 41.3125V39.5527C69.0546 38.6952 68.3594 38 67.5019 38C66.6443 38 65.9491 38.6952 65.9491 39.5527V41.3125H42.5547C41.6972 41.3125 41.002 42.0077 41.002 42.8652C41.002 43.7227 41.6972 44.4179 42.5547 44.4179H44.2109L44.2109 80.1307C44.2109 80.9882 44.9061 81.6834 45.7637 81.6834H58.3896L53.788 88.5857C53.3124 89.2992 53.5052 90.2633 54.2188 90.7389C54.9291 91.2126 55.8942 91.0249 56.372 90.3083L62.122 81.6834H72.8817L78.6317 90.3084C79.1089 91.0241 80.0735 91.2134 80.7849 90.739C81.4986 90.2634 81.6913 89.2993 81.2155 88.5858L76.614 81.6834H89.2399C90.0975 81.6834 90.7927 80.9882 90.7927 80.1307V44.4179H92.4489C93.3064 44.4179 94.0016 43.7227 94.0016 42.8652C94.0016 42.0077 93.3065 41.3125 92.449 41.3125ZM87.6873 78.578C85.012 78.578 49.0467 78.578 47.3164 78.578L47.3164 44.4179L87.6873 44.4179V78.578Z" fill="white"/>
<path d="M62.8418 70.8145V73.9199C62.8418 74.7775 63.537 75.4727 64.3945 75.4727H83.0274C83.8849 75.4727 84.5801 74.7775 84.5801 73.9199V61.4981C84.5801 60.87 84.2019 60.3039 83.6215 60.0635C83.0417 59.8233 82.3735 59.956 81.9294 60.4001L76.5098 65.8196L71.2999 63.2147C70.7157 62.9225 69.9857 63.0271 69.5076 63.5055L63.2966 69.7165C63.0054 70.0078 62.8418 70.4027 62.8418 70.8145ZM72.1582 67.116L75.2637 68.6687V72.3672H72.1582V67.116ZM81.4746 72.3672H78.3692V68.3521L81.4746 65.2467V72.3672ZM65.9473 71.4576L69.0527 68.3521V72.3672H65.9473V71.4576Z" fill="white"/>
<path d="M65.9473 55.2871C65.9473 51.0064 62.4648 47.5237 58.1841 47.5234C58.1839 47.5234 58.1838 47.5234 58.1836 47.5234C58.1834 47.5234 58.1833 47.5234 58.1831 47.5234C53.9024 47.5237 50.4199 51.0063 50.4199 55.2871C50.4199 59.568 53.9027 63.0508 58.1836 63.0508C62.4645 63.0508 65.9473 59.568 65.9473 55.2871ZM56.6309 50.896V53.7344H53.7925C54.2611 52.4131 55.3096 51.3646 56.6309 50.896ZM58.1836 59.9453C56.1593 59.9453 54.4334 58.6471 53.7925 56.8398H58.1836C59.0411 56.8398 59.7363 56.1446 59.7363 55.2871V50.896C61.5436 51.5369 62.8418 53.2629 62.8418 55.2871C62.8418 57.8556 60.7521 59.9453 58.1836 59.9453Z" fill="white"/>
<path d="M73.7109 50.6289H79.9219C80.7794 50.6289 81.4746 49.9336 81.4746 49.0761C81.4746 48.2186 80.7794 47.5234 79.9219 47.5234H73.7109C72.8534 47.5234 72.1582 48.2186 72.1582 49.0761C72.1582 49.9336 72.8534 50.6289 73.7109 50.6289Z" fill="white"/>
<path d="M73.7109 56.8398H79.9219C80.7794 56.8398 81.4746 56.1446 81.4746 55.287C81.4746 54.4295 80.7794 53.7343 79.9219 53.7343H73.7109C72.8534 53.7343 72.1582 54.4295 72.1582 55.287C72.1582 56.1446 72.8534 56.8398 73.7109 56.8398Z" fill="white"/>
<path d="M58.1836 66.1561H51.9727C51.1151 66.1561 50.4199 66.8513 50.4199 67.7089C50.4199 68.5664 51.1151 69.2616 51.9727 69.2616H58.1836C59.0411 69.2616 59.7363 68.5664 59.7363 67.7089C59.7363 66.8513 59.0411 66.1561 58.1836 66.1561Z" fill="white"/>
<path d="M58.1836 72.3671H51.9727C51.1151 72.3671 50.4199 73.0623 50.4199 73.9198C50.4199 74.7773 51.1151 75.4725 51.9727 75.4725H58.1836C59.0411 75.4725 59.7363 74.7773 59.7363 73.9198C59.7363 73.0623 59.0411 72.3671 58.1836 72.3671Z" fill="white"/>
</g>
<defs>
<clipPath id="clip0">
<rect width="53" height="53" fill="white" transform="translate(41 38)"/>
</clipPath>
</defs>
</svg>
