<svg width="137" height="137" viewBox="0 0 137 137" fill="none" xmlns="http://www.w3.org/2000/svg">
<path d="M58.5 5.7735C64.688 2.20085 72.312 2.20085 78.5 5.7735L117.823 28.4765C124.011 32.0492 127.823 38.6517 127.823 45.797V91.203C127.823 98.3483 124.011 104.951 117.823 108.524L78.5 131.227C72.312 134.799 64.688 134.799 58.5 131.227L19.1773 108.523C12.9892 104.951 9.17726 98.3483 9.17726 91.203V45.797C9.17726 38.6517 12.9892 32.0492 19.1773 28.4765L58.5 5.7735Z" fill="#192347"/>
<g clip-path="url(#clip0)">
<path d="M92.4473 44.4173H83.3356L68.093 38.117C67.7133 37.96 67.2866 37.96 66.9069 38.117L51.6644 44.4173H42.5527C41.6952 44.4173 41 45.1125 41 45.97V89.4466C41 90.3041 41.6952 90.9993 42.5527 90.9993H92.4473C93.3048 90.9993 94 90.3041 94 89.4466V45.97C94 45.1125 93.3048 44.4173 92.4473 44.4173ZM67.5 41.2322L75.2058 44.4173H59.7942L67.5 41.2322ZM90.8945 87.8939H44.1055V47.5228H83.0183C83.0211 47.5228 83.0239 47.5232 83.0267 47.5232C83.0303 47.5232 83.034 47.5228 83.0377 47.5228H90.8945V87.8939Z" fill="white"/>
<path d="M64.3945 56.8398H59.7363V52.1816C59.7363 51.3241 59.0411 50.6289 58.1836 50.6289H48.8672C48.0097 50.6289 47.3145 51.3241 47.3145 52.1816V61.498C47.3145 62.3556 48.0097 63.0508 48.8672 63.0508H53.5254V67.709C53.5254 68.5665 54.2206 69.2617 55.0781 69.2617H64.3945C65.2521 69.2617 65.9473 68.5665 65.9473 67.709V58.3926C65.9473 57.5351 65.2521 56.8398 64.3945 56.8398ZM50.4199 53.7344H56.6309V59.9453H50.4199V53.7344ZM62.8418 66.1562H56.6309V63.0508H58.1836C59.0411 63.0508 59.7363 62.3556 59.7363 61.498V59.9453H62.8418V66.1562Z" fill="white"/>
<path d="M64.3945 72.3672H48.8672C48.0097 72.3672 47.3145 73.0624 47.3145 73.9199V83.2363C47.3145 84.0939 48.0097 84.7891 48.8672 84.7891H64.3945C65.2521 84.7891 65.9473 84.0939 65.9473 83.2363V73.9199C65.9473 73.0624 65.2521 72.3672 64.3945 72.3672ZM62.8418 81.6836H50.4199V75.4727H62.8418V81.6836Z" fill="white"/>
<path d="M86.1328 63.0508H70.6055C69.7479 63.0508 69.0527 63.746 69.0527 64.6035V83.2363C69.0527 84.0939 69.7479 84.7891 70.6055 84.7891H86.1328C86.9903 84.7891 87.6855 84.0939 87.6855 83.2363V64.6035C87.6855 63.746 86.9903 63.0508 86.1328 63.0508ZM84.5801 81.6836H72.1582V66.1563H84.5801V81.6836Z" fill="white"/>
<path d="M70.6055 50.6289C69.7479 50.6289 69.0527 51.3241 69.0527 52.1816V58.3926C69.0527 59.2501 69.7479 59.9453 70.6055 59.9453H86.1328C86.9903 59.9453 87.6855 59.2501 87.6855 58.3926V52.1816C87.6855 51.3241 86.9903 50.6289 86.1328 50.6289H70.6055ZM84.5801 56.8398H72.1582V53.7344H84.5801V56.8398Z" fill="white"/>
<path d="M76.8164 72.3672H79.9219C80.7794 72.3672 81.4746 71.672 81.4746 70.8145C81.4746 69.9569 80.7794 69.2617 79.9219 69.2617H76.8164C75.9589 69.2617 75.2637 69.9569 75.2637 70.8145C75.2637 71.672 75.9589 72.3672 76.8164 72.3672Z" fill="white"/>
<path d="M76.8164 78.5781H79.9219C80.7794 78.5781 81.4746 77.8829 81.4746 77.0254C81.4746 76.1679 80.7794 75.4727 79.9219 75.4727H76.8164C75.9589 75.4727 75.2637 76.1679 75.2637 77.0254C75.2637 77.8829 75.9589 78.5781 76.8164 78.5781Z" fill="white"/>
</g>
<defs>
<clipPath id="clip0">
<rect width="53" height="53" fill="white" transform="translate(41 38)"/>
</clipPath>
</defs>
</svg>
