<svg width="137" height="137" viewBox="0 0 137 137" fill="none" xmlns="http://www.w3.org/2000/svg">
<path d="M58.5 5.7735C64.688 2.20085 72.312 2.20085 78.5 5.7735L117.823 28.4765C124.011 32.0492 127.823 38.6517 127.823 45.797V91.203C127.823 98.3483 124.011 104.951 117.823 108.524L78.5 131.227C72.312 134.799 64.688 134.799 58.5 131.227L19.1773 108.523C12.9892 104.951 9.17726 98.3483 9.17726 91.203V45.797C9.17726 38.6517 12.9892 32.0492 19.1773 28.4765L58.5 5.7735Z" fill="#192347"/>
<path d="M91.1093 53.6742L93.6798 51.1041C94.1068 50.6767 94.2475 50.0402 94.0401 49.4729C93.8326 48.9052 93.3146 48.5097 92.7121 48.4588L87.9436 48.0564L87.5412 43.2879C87.4907 42.6858 87.0948 42.1678 86.5275 41.9604C85.9602 41.7525 85.3237 41.8932 84.8963 42.3206L82.3258 44.8907C78.169 42.3421 73.4162 41 68.5 41C61.4217 41 54.7668 43.7565 49.7617 48.7617C44.7565 53.7668 42 60.4217 42 67.5C42 74.5783 44.7565 81.2332 49.7617 86.2383C54.7668 91.2435 61.4217 94 68.5 94C75.5783 94 82.2332 91.2435 87.2383 86.2383C92.2435 81.2332 95 74.5783 95 67.5C95 62.5838 93.6579 57.8314 91.1093 53.6742ZM84.959 49.6241C85.0229 50.3787 85.6213 50.9771 86.3759 51.041L89.1194 51.2723L85.4058 54.9859L81.3558 54.6442L81.0141 50.5942L84.7277 46.8806L84.959 49.6241ZM73.7793 67.5C73.7793 70.411 71.411 72.7793 68.5 72.7793C65.589 72.7793 63.2207 70.411 63.2207 67.5C63.2207 64.589 65.589 62.2207 68.5 62.2207C69.3916 62.2207 70.2315 62.4435 70.9686 62.8353L67.4022 66.4022C66.7956 67.0083 66.7956 67.9913 67.4022 68.5978C67.705 68.9011 68.1025 69.0527 68.5 69.0527C68.8975 69.0527 69.295 68.9011 69.5978 68.5978L73.1647 65.0314C73.5565 65.7685 73.7793 66.6084 73.7793 67.5ZM73.2257 60.5782C71.8792 59.6563 70.2517 59.1152 68.5 59.1152C63.8766 59.1152 60.1152 62.8766 60.1152 67.5C60.1152 72.1234 63.8766 75.8848 68.5 75.8848C73.1234 75.8848 76.8848 72.1234 76.8848 67.5C76.8848 65.7483 76.3437 64.1208 75.4218 62.7743L79.8552 58.3409C81.8806 60.8471 83.0957 64.0342 83.0957 67.5C83.0957 75.5479 76.5479 82.0957 68.5 82.0957C60.4521 82.0957 53.9043 75.5479 53.9043 67.5C53.9043 59.4521 60.4521 52.9043 68.5 52.9043C71.9658 52.9043 75.1529 54.1194 77.6591 56.1448L73.2257 60.5782ZM85.0423 84.0423C80.6239 88.4611 74.7489 90.8945 68.5 90.8945C62.2511 90.8945 56.3761 88.4611 51.9577 84.0423C47.5389 79.6239 45.1055 73.7489 45.1055 67.5C45.1055 61.2511 47.5389 55.3761 51.9577 50.9577C56.3761 46.5389 62.2511 44.1055 68.5 44.1055C72.5881 44.1055 76.5479 45.1556 80.0598 47.1568L78.3085 48.908C78.0255 49.1911 77.8641 49.5704 77.854 49.9662C77.8528 50.0228 77.8544 50.0795 77.8589 50.1365L78.0679 52.614C75.3074 50.8332 72.0224 49.7988 68.5 49.7988C58.7396 49.7988 50.7988 57.7396 50.7988 67.5C50.7988 77.2604 58.7396 85.2012 68.5 85.2012C78.2604 85.2012 86.2012 77.2604 86.2012 67.5C86.2012 63.9776 85.1668 60.6926 83.386 57.9321L85.8635 58.1411C85.9072 58.1444 85.9509 58.1464 85.9941 58.1464C86.0014 58.1464 86.0091 58.1456 86.0164 58.1452C86.037 58.1452 86.0572 58.1436 86.0778 58.1423C86.1114 58.1403 86.1454 58.1383 86.1785 58.1343C86.1992 58.1314 86.2198 58.1282 86.2404 58.125C86.2731 58.1197 86.3055 58.1136 86.3378 58.1064C86.3585 58.1015 86.3787 58.0963 86.3989 58.091C86.4304 58.0825 86.4616 58.0728 86.4927 58.0623C86.5129 58.0554 86.5327 58.0485 86.5526 58.0409C86.5829 58.0291 86.6128 58.0162 86.6427 58.002C86.6617 57.9935 86.6807 57.9851 86.6997 57.9753C86.7297 57.96 86.7588 57.943 86.7875 57.926C86.8049 57.9155 86.8223 57.9058 86.8392 57.8953C86.87 57.8751 86.8995 57.8532 86.929 57.831C86.9428 57.8205 86.9569 57.8112 86.9703 57.8003C87.0123 57.7663 87.0532 57.7303 87.092 57.6915L88.8432 55.9402C90.8444 59.4521 91.8945 63.4119 91.8945 67.5C91.8945 73.7489 89.4611 79.6239 85.0423 84.0423Z" fill="white"/>
</svg>
