<svg width="137" height="137" viewBox="0 0 137 137" fill="none" xmlns="http://www.w3.org/2000/svg">
<path d="M58.5 5.7735C64.688 2.20085 72.312 2.20085 78.5 5.7735L117.823 28.4765C124.011 32.0492 127.823 38.6517 127.823 45.797V91.203C127.823 98.3483 124.011 104.951 117.823 108.524L78.5 131.227C72.312 134.799 64.688 134.799 58.5 131.227L19.1773 108.523C12.9892 104.951 9.17726 98.3483 9.17726 91.203V45.797C9.17726 38.6517 12.9892 32.0492 19.1773 28.4765L58.5 5.7735Z" fill="#192347"/>
<path d="M64.7578 67.8293C64.7578 74.1466 69.8973 79.2861 76.2146 79.2861C82.5319 79.2861 87.6714 74.1466 87.6714 67.8293C87.6714 61.512 82.5319 56.3725 76.2146 56.3725C69.8973 56.3725 64.7578 61.512 64.7578 67.8293ZM77.7769 59.6461C81.1204 60.2832 83.7607 62.9235 84.3978 66.267H77.7769V59.6461ZM76.8617 69.3916H84.3978C83.6643 73.2415 80.2749 76.1615 76.2146 76.1615C74.4808 76.1615 72.8694 75.6287 71.5344 74.7189L76.8617 69.3916ZM74.6523 59.6461V67.1822L69.325 72.5095C68.4152 71.1746 67.8824 69.5631 67.8824 67.8293C67.8824 63.769 70.8024 60.3797 74.6523 59.6461Z" fill="white"/>
<path d="M56.9453 56.3725H48.6131C47.7503 56.3725 47.0508 57.072 47.0508 57.9348C47.0508 58.7976 47.7503 59.4971 48.6131 59.4971H56.9453C57.8081 59.4971 58.5076 58.7976 58.5076 57.9348C58.5076 57.072 57.8081 56.3725 56.9453 56.3725Z" fill="white"/>
<path d="M56.9453 62.6217H48.6131C47.7503 62.6217 47.0508 63.3212 47.0508 64.184C47.0508 65.0468 47.7503 65.7463 48.6131 65.7463H56.9453C57.8081 65.7463 58.5076 65.0468 58.5076 64.184C58.5076 63.3212 57.8081 62.6217 56.9453 62.6217Z" fill="white"/>
<path d="M89.4421 37.625H45.4896C42.9053 37.625 40.8027 39.7275 40.8027 42.3119V86.2644C40.8027 88.8487 42.9053 90.9512 45.4896 90.9512H89.4421C92.0266 90.9512 94.129 88.8487 94.129 86.2644V42.3119C94.129 39.7275 92.0266 37.625 89.4421 37.625ZM91.0044 86.2644C91.0044 87.1258 90.3037 87.8267 89.4421 87.8267H45.4896C44.6282 87.8267 43.9273 87.1258 43.9273 86.2644V53.2479H69.4448C69.7995 53.2479 70.1437 53.1272 70.4207 52.9056L75.2005 49.0818H91.0044V86.2644ZM91.0044 45.9572H74.6524C74.2977 45.9572 73.9534 46.0779 73.6765 46.2996L68.8967 50.1233H43.9273V42.3119C43.9273 41.4504 44.6282 40.7496 45.4896 40.7496H89.4421C90.3037 40.7496 91.0044 41.4504 91.0044 42.3119V45.9572Z" fill="white"/>
<path d="M50.6961 43.8741H48.6131C47.7503 43.8741 47.0508 44.5736 47.0508 45.4364C47.0508 46.2992 47.7503 46.9987 48.6131 46.9987H50.6961C51.5589 46.9987 52.2584 46.2992 52.2584 45.4364C52.2584 44.5736 51.5589 43.8741 50.6961 43.8741Z" fill="white"/>
<path d="M59.0301 43.8741H56.9471C56.0843 43.8741 55.3848 44.5736 55.3848 45.4364C55.3848 46.2992 56.0843 46.9987 56.9471 46.9987H59.0301C59.8929 46.9987 60.5924 46.2992 60.5924 45.4364C60.5924 44.5736 59.8929 43.8741 59.0301 43.8741Z" fill="white"/>
<path d="M67.3621 43.8741H65.2791C64.4163 43.8741 63.7168 44.5736 63.7168 45.4364C63.7168 46.2992 64.4163 46.9987 65.2791 46.9987H67.3621C68.2249 46.9987 68.9244 46.2992 68.9244 45.4364C68.9244 44.5736 68.2249 43.8741 67.3621 43.8741Z" fill="white"/>
<path d="M61.1111 71.9954C60.2483 71.9954 59.5488 72.6949 59.5488 73.5577V82.9315C59.5488 83.7943 60.2483 84.4938 61.1111 84.4938C61.9739 84.4938 62.6734 83.7943 62.6734 82.9315V73.5577C62.6734 72.6949 61.9739 71.9954 61.1111 71.9954Z" fill="white"/>
<path d="M54.8631 75.12C54.0003 75.12 53.3008 75.8195 53.3008 76.6823V82.9315C53.3008 83.7943 54.0003 84.4937 54.8631 84.4937C55.7259 84.4937 56.4254 83.7943 56.4254 82.9315V76.6823C56.4254 75.8195 55.7259 75.12 54.8631 75.12Z" fill="white"/>
<path d="M48.6131 78.2446C47.7503 78.2446 47.0508 78.9441 47.0508 79.8069V82.9315C47.0508 83.7943 47.7503 84.4938 48.6131 84.4938C49.4759 84.4938 50.1754 83.7943 50.1754 82.9315V79.8069C50.1754 78.9441 49.4759 78.2446 48.6131 78.2446Z" fill="white"/>
</svg>
