<svg width="137" height="137" viewBox="0 0 137 137" fill="none" xmlns="http://www.w3.org/2000/svg">
<path d="M58.5 5.7735C64.688 2.20085 72.312 2.20085 78.5 5.7735L117.823 28.4765C124.011 32.0492 127.823 38.6517 127.823 45.797V91.203C127.823 98.3483 124.011 104.951 117.823 108.524L78.5 131.227C72.312 134.799 64.688 134.799 58.5 131.227L19.1773 108.523C12.9892 104.951 9.17726 98.3483 9.17726 91.203V45.797C9.17726 38.6517 12.9892 32.0492 19.1773 28.4765L58.5 5.7735Z" fill="#192347"/>
<g clip-path="url(#clip0)">
<path d="M87.7503 53.0997C88.7358 51.9993 89.3365 50.5475 89.3365 48.9576C89.3365 45.5299 86.5479 42.7413 83.1201 42.7413C79.6925 42.7413 76.9038 45.5299 76.9038 48.9576C76.9038 50.5475 77.5045 51.9993 78.4899 53.0997C77.8134 53.4186 77.1747 53.8049 76.5829 54.2506C75.446 53.0648 74.0736 52.1067 72.5415 51.4522C73.7714 50.188 74.531 48.4642 74.531 46.5654C74.531 42.6981 71.3846 39.5517 67.5173 39.5517C63.6499 39.5517 60.5035 42.6981 60.5035 46.5654C60.5035 48.4642 61.2632 50.188 62.493 51.4522C60.9543 52.1095 59.5765 53.0729 58.4368 54.2657C57.8395 53.8138 57.1942 53.4222 56.5101 53.0997C57.4955 51.9993 58.0962 50.5475 58.0962 48.9576C58.0962 45.5299 55.3076 42.7413 51.8799 42.7413C48.4522 42.7413 45.6635 45.5299 45.6635 48.9576C45.6635 50.5475 46.2642 51.9993 47.2497 53.0997C43.56 54.8388 41 58.5935 41 62.9355V62.9484C41 67.6058 42.2261 72.1879 44.5459 76.1993C44.5549 76.2149 44.5641 76.2302 44.5737 76.2453C46.8599 80.1806 50.1397 83.4811 54.0617 85.793C58.1187 88.1843 62.7656 89.4483 67.5 89.4483C72.2344 89.4483 76.8813 88.1843 80.9383 85.7928C84.8601 83.4811 88.1401 80.1802 90.4263 76.2453C90.4359 76.2302 90.4451 76.2149 90.4541 76.1993C92.7739 72.1878 94 67.6057 94 62.9483V62.9354C94 58.5935 91.44 54.8388 87.7503 53.0997ZM80.5114 73.8692H74.672C75.0212 70.9389 75.2274 67.7546 75.2772 64.501H82.2009C82.0624 67.7762 81.4859 70.97 80.5114 73.8692ZM52.799 64.501H59.7227C59.7725 67.7545 59.9787 70.9388 60.3279 73.8692H54.4885C53.5141 70.9699 52.9376 67.7761 52.799 64.501ZM51.8799 45.8467C53.5952 45.8467 54.9908 47.2422 54.9908 48.9575C54.9908 50.6729 53.5953 52.0684 51.8799 52.0684C50.1645 52.0684 48.769 50.6729 48.769 48.9575C48.769 47.2422 50.1645 45.8467 51.8799 45.8467ZM51.867 55.1739H51.8927C53.6579 55.1739 55.287 55.7664 56.5924 56.7627C55.8101 58.1618 55.2943 59.729 55.1143 61.3956H44.2589C44.9752 57.8511 48.1144 55.1739 51.867 55.1739ZM63.609 46.5654C63.609 44.4104 65.3623 42.6572 67.5173 42.6572C69.6723 42.6572 71.4255 44.4104 71.4255 46.5654C71.4255 48.7204 69.6723 50.4736 67.5173 50.4736C65.3623 50.4736 63.609 48.7204 63.609 46.5654ZM67.2885 53.5791H67.7461C72.3367 53.5791 76.1477 56.9804 76.7908 61.3956H58.2436C58.8869 56.9804 62.6978 53.5791 67.2885 53.5791ZM83.1201 45.8467C84.8354 45.8467 86.231 47.2422 86.231 48.9575C86.231 50.6729 84.8356 52.0684 83.1201 52.0684C81.4048 52.0684 80.0092 50.6729 80.0092 48.9575C80.0092 47.2422 81.4047 45.8467 83.1201 45.8467ZM83.133 55.1739C86.8857 55.1739 90.0248 57.851 90.7411 61.3956H79.9201C79.7393 59.7216 79.2197 58.148 78.4317 56.7443C79.733 55.7591 81.3529 55.1739 83.1072 55.1739H83.133ZM63.4557 73.8692C63.0935 70.9592 62.8796 67.7694 62.8281 64.501H72.1719C72.1204 67.7695 71.9065 70.9593 71.5443 73.8692H63.4557ZM60.7666 76.9747C61.2407 79.8472 61.9366 82.84 62.9536 85.1739C60.1145 83.6843 57.5782 80.8321 55.7393 76.9747H60.7666ZM63.9163 76.9747H71.0837C69.7486 84.6587 67.8456 86.3428 67.5 86.3428C67.1544 86.3428 65.2514 84.6587 63.9163 76.9747ZM72.0463 85.174C73.0633 82.8401 73.7592 79.8472 74.2333 76.9748H79.2606C77.4217 80.8322 74.8854 83.6844 72.0463 85.174ZM44.1569 64.501H49.6925C49.8193 67.7448 50.3422 70.9258 51.2299 73.8692H46.8075C45.2791 70.9754 44.3744 67.7778 44.1569 64.501ZM48.7771 76.9747H52.3414C53.3498 79.3875 54.6146 81.5424 56.0785 83.3518C53.2536 81.77 50.7551 79.607 48.7771 76.9747ZM78.9215 83.3518C80.3854 81.5424 81.6502 79.3875 82.6585 76.9747H86.2229C84.2449 79.607 81.7464 81.77 78.9215 83.3518ZM88.1924 73.8692H83.77C84.6578 70.9259 85.1807 67.7448 85.3075 64.501H90.8431C90.6256 67.7779 89.7209 70.9754 88.1924 73.8692Z" fill="white"/>
</g>
<defs>
<clipPath id="clip0">
<rect width="53" height="53" fill="white" transform="translate(41 38)"/>
</clipPath>
</defs>
</svg>
