<svg width="137" height="137" viewBox="0 0 137 137" fill="none" xmlns="http://www.w3.org/2000/svg">
<path d="M58.5 5.7735C64.688 2.20085 72.312 2.20085 78.5 5.7735L117.823 28.4765C124.011 32.0492 127.823 38.6517 127.823 45.797V91.203C127.823 98.3483 124.011 104.951 117.823 108.524L78.5 131.227C72.312 134.799 64.688 134.799 58.5 131.227L19.1773 108.523C12.9892 104.951 9.17726 98.3483 9.17726 91.203V45.797C9.17726 38.6517 12.9892 32.0492 19.1773 28.4765L58.5 5.7735Z" fill="#192347"/>
<path d="M92.397 79.7239H90.6562V55.7103C92.5971 55.0599 94 53.2257 94 51.0687C94 48.3695 91.8041 46.1736 89.105 46.1736C86.4059 46.1736 84.21 48.3695 84.21 51.0687C84.21 52.1205 84.5445 53.095 85.1113 53.8937L78.2633 63.2368C77.7923 63.0856 77.2907 63.0031 76.7701 63.0031C75.8395 63.0031 74.9687 63.2642 74.2272 63.717L68.952 59.0568C69.1953 58.4761 69.3302 57.8391 69.3302 57.1711C69.3302 54.472 67.1343 52.2761 64.4352 52.2761C61.736 52.2761 59.54 54.472 59.54 57.1711C59.54 58.0703 59.7848 58.9132 60.2097 59.6381L53.994 66.7286C53.4112 66.4831 52.7712 66.3472 52.1002 66.3472C49.4011 66.3472 47.2052 68.5431 47.2052 71.2423C47.2052 73.3088 48.493 75.079 50.3076 75.7959V79.7238H44.1024V50.2476C44.1024 49.3909 43.4079 48.6963 42.5512 48.6963C41.6945 48.6963 41 49.3909 41 50.2476V81.275C41 82.1317 41.6945 82.8262 42.5512 82.8262H92.397C93.2537 82.8262 93.9482 82.1317 93.9482 81.275C93.9482 80.4184 93.2537 79.7239 92.397 79.7239ZM65.9863 61.813C66.3104 61.7043 66.6194 61.5631 66.9094 61.3924L72.2238 66.0871C71.9996 66.6478 71.875 67.2586 71.875 67.8983C71.875 70.0552 73.2779 71.8896 75.2188 72.54V79.7241H65.9863V61.813ZM78.3212 72.5398C80.2621 71.8894 81.6651 70.0551 81.6651 67.8981C81.6651 66.8464 81.3306 65.8719 80.7639 65.0731L87.5538 55.8093V79.7239H78.3212V72.5398ZM89.105 49.2761C90.0934 49.2761 90.8976 50.0802 90.8976 51.0687C90.8976 52.0571 90.0934 52.8612 89.105 52.8612C88.1165 52.8612 87.3124 52.0571 87.3124 51.0687C87.3124 50.0802 88.1165 49.2761 89.105 49.2761ZM76.77 66.1055C77.7585 66.1055 78.5627 66.9097 78.5627 67.8981C78.5627 68.8866 77.7586 69.6907 76.77 69.6907C75.7815 69.6907 74.9774 68.8866 74.9774 67.8981C74.9774 66.9098 75.7816 66.1055 76.77 66.1055ZM64.4351 55.3787C65.4235 55.3787 66.2276 56.1828 66.2276 57.1713C66.2276 58.1598 65.4235 58.9639 64.4351 58.9639C63.4466 58.9639 62.6424 58.1598 62.6424 57.1713C62.6425 56.1828 63.4466 55.3787 64.4351 55.3787ZM52.1002 69.4496C53.0886 69.4496 53.8929 70.2538 53.8929 71.2423C53.8929 72.2308 53.0887 73.0349 52.1002 73.0349C51.1117 73.0349 50.3076 72.2308 50.3076 71.2423C50.3076 70.2539 51.1118 69.4496 52.1002 69.4496ZM53.41 75.958C55.4749 75.3836 56.9952 73.4878 56.9952 71.2423C56.9952 70.3431 56.7504 69.5003 56.3255 68.7754L62.5412 61.6849C62.6532 61.732 62.7678 61.774 62.8838 61.8129V79.7238H53.41V75.958Z" fill="white"/>
</svg>
