<svg width="68" height="68" viewBox="0 0 68 68" fill="none" xmlns="http://www.w3.org/2000/svg">
<path d="M66.4663 28.0762C65.3642 27.8155 64.2287 27.5482 63.1243 27.2875C62.3815 24.0437 61.1125 20.9821 59.3389 18.1561C59.9413 17.1813 60.5438 16.2056 61.1458 15.2305C61.6308 14.4447 61.5124 13.4285 60.8595 12.7755L55.2244 7.14053C54.5715 6.48749 53.5553 6.36902 52.7692 6.85432C51.8019 7.45065 50.8138 8.06358 49.8453 8.6615C47.0192 6.88739 43.9568 5.61757 40.7119 4.87448C40.4491 3.76098 40.1856 2.64709 39.9224 1.53359C39.7097 0.634711 38.9073 0 37.9837 0H30.015C29.0914 0 28.2889 0.634711 28.0763 1.53359C27.8144 2.63792 27.5493 3.76842 27.2878 4.87462C24.0433 5.61744 20.9808 6.88726 18.1549 8.66123C17.1877 8.06504 16.1964 7.44892 15.2312 6.85419C14.4456 6.36929 13.4292 6.48749 12.776 7.14066L7.14146 12.7752C6.48829 13.4283 6.36969 14.4446 6.85498 15.2304C7.45716 16.2058 8.05946 17.1812 8.6619 18.156C6.88832 20.9824 5.6189 24.0444 4.87648 27.2873C3.76816 27.5498 2.64005 27.8136 1.53359 28.0762C0.634844 28.2889 0 29.0914 0 30.015V37.9837C0 38.9073 0.634711 39.7097 1.53359 39.9225C2.64775 40.1859 3.76218 40.4494 4.87621 40.7125C5.6193 43.9567 6.88885 47.0183 8.66269 49.844C8.06557 50.8126 7.45078 51.8018 6.85512 52.7685C6.36982 53.5544 6.48829 54.5708 7.14146 55.2238L12.7763 60.8587C13.4293 61.5118 14.4456 61.6306 15.2316 61.145C16.207 60.5428 17.1826 59.9403 18.1576 59.3378C20.983 61.1111 24.044 62.3799 27.2873 63.1227C27.5496 64.2289 27.8144 65.3626 28.0762 66.4664C28.2888 67.3653 29.0914 68.0001 30.015 68.0001H37.9837C38.9073 68.0001 39.7097 67.3653 39.9225 66.4665C40.186 65.3517 40.4498 64.2368 40.713 63.1219C43.9552 62.3795 47.0164 61.1105 49.8424 59.3372C50.8176 59.9399 51.7936 60.5426 52.7693 61.145C53.5552 61.6302 54.5715 61.5117 55.2246 60.8587L60.8593 55.2238C61.5124 54.5708 61.6311 53.5545 61.1458 52.7687C60.5482 51.7995 59.9367 50.8133 59.3377 49.8433C61.1113 47.0181 62.3808 43.9564 63.1238 40.7126C64.2378 40.4496 65.3524 40.186 66.4664 39.9226C67.3653 39.7099 68 38.9074 68 37.9838V30.0151C68 29.0914 67.3652 28.2888 66.4663 28.0762ZM64.0156 36.4078C63.0011 36.6476 61.9864 36.8872 60.9725 37.1264C60.2027 37.308 59.6133 37.9277 59.4704 38.7057C58.8098 42.3025 57.4186 45.6581 55.335 48.679C54.8861 49.3299 54.8646 50.1847 55.2801 50.8572C55.7061 51.5152 56.5134 52.8743 56.9272 53.5213L53.5216 56.9269C52.6329 56.378 51.7443 55.8289 50.8567 55.2803C50.184 54.8644 49.3291 54.8857 48.6786 55.3346C45.6562 57.418 42.3009 58.8087 38.7063 59.4684C37.9283 59.6112 37.3085 60.2007 37.1268 60.9706C36.8875 61.9853 36.6477 63.0005 36.4076 64.0159H31.5913C31.4265 63.3215 31.0437 61.6905 30.8732 60.9709C30.6914 60.2014 30.0718 59.6124 29.2941 59.4695C25.698 58.8091 22.3426 57.4182 19.3212 55.3353C18.6705 54.8865 17.8156 54.8651 17.1428 55.2811C16.2555 55.8297 15.3673 56.3784 14.479 56.927L11.0732 53.5214C11.449 52.9116 12.3304 51.4898 12.7199 50.858C13.1354 50.1855 13.1139 49.3305 12.665 48.6798C10.5814 45.6587 9.18996 42.3029 8.52922 38.7058C8.38645 37.9281 7.79702 37.3084 7.02737 37.1267C6.01335 36.8873 4.9988 36.6478 3.98398 36.4079V31.5916C4.71312 31.4187 6.27579 31.0518 7.02804 30.8736C7.79769 30.6918 8.38698 30.0721 8.52975 29.2942C9.18943 25.6987 10.5804 22.3428 12.6642 19.32C13.113 18.6689 13.1344 17.8141 12.7185 17.1416C12.1699 16.2544 11.6214 15.3665 11.0728 14.4783L14.4784 11.0727C15.072 11.4374 16.5244 12.3392 17.141 12.7188C17.8137 13.1346 18.6684 13.1127 19.3192 12.6639C22.3405 10.58 25.6968 9.1885 29.2943 8.52816C30.0719 8.38538 30.6916 7.79609 30.8736 7.02645C31.0273 6.2819 31.4353 4.71219 31.591 3.98438H36.4074C36.6471 4.99853 36.8865 6.01255 37.1256 7.02591C37.3072 7.7957 37.927 8.38512 38.705 8.52816C42.3028 9.18863 45.6591 10.5801 48.6806 12.6642C49.3313 13.1131 50.1861 13.1348 50.8588 12.7191C51.4642 12.3433 52.9283 11.4405 53.5216 11.0727L56.9273 14.4783C56.3788 15.3665 55.83 16.2545 55.2815 17.1418C54.8656 17.8144 54.887 18.6692 55.3358 19.3201C57.4191 22.3419 58.81 25.6978 59.4702 29.2945C59.613 30.0721 60.2023 30.6918 60.9718 30.8737C61.6955 31.0261 63.3097 31.4386 64.0152 31.5916V36.4078H64.0156Z" fill="white"/>
<path d="M33.9992 11.5522C21.6223 11.5522 11.5527 21.6217 11.5527 33.9988C12.6812 63.7364 55.3219 63.7282 56.4459 33.9985C56.4459 21.6218 46.3763 11.5522 33.9992 11.5522ZM33.9992 52.461C23.8193 52.461 15.5371 44.179 15.5371 33.9988C16.4653 9.53987 51.537 9.54664 52.4615 33.999C52.4615 44.179 44.1793 52.461 33.9992 52.461Z" fill="white"/>
<path d="M25.832 31.316C26.9323 31.316 27.8242 30.4241 27.8242 29.3238V22.7362C27.8242 21.636 26.9323 20.744 25.832 20.744C24.7318 20.744 23.8398 21.636 23.8398 22.7362V29.3238C23.8398 30.4241 24.7318 31.316 25.832 31.316Z" fill="white"/>
<path d="M43.7617 28.0221V24.0377C43.7617 21.8407 41.9743 20.0533 39.7773 20.0533H35.793C33.596 20.0533 31.8086 21.8407 31.8086 24.0377V28.0221C31.8086 30.2191 33.596 32.0065 35.793 32.0065H39.7773C41.9743 32.0065 43.7617 30.2191 43.7617 28.0221ZM39.7773 28.0221H35.793L35.7926 24.0377H39.7773V28.0221Z" fill="white"/>
<path d="M31.8086 35.9908H27.8241C25.6272 35.9908 23.8398 37.7782 23.8398 39.9752V43.9596C23.8398 46.1567 25.6272 47.9441 27.8241 47.9441H31.8086C34.0056 47.9441 35.793 46.1567 35.793 43.9596V39.9752C35.793 37.7782 34.0056 35.9908 31.8086 35.9908ZM31.8086 43.9597L27.8242 43.9596L27.8237 39.9752H31.8086V43.9597Z" fill="white"/>
<path d="M42.168 36.6803C41.0677 36.6803 40.1758 37.5723 40.1758 38.6725V45.2626C40.1758 46.3629 41.0677 47.2548 42.168 47.2548C43.2682 47.2548 44.1602 46.3629 44.1602 45.2626V38.6725C44.1602 37.5721 43.2682 36.6803 42.168 36.6803Z" fill="white"/>
</svg>
