<svg width="68" height="68" viewBox="0 0 68 68" fill="none" xmlns="http://www.w3.org/2000/svg">
<path d="M66.0078 0H1.99219C0.891969 0 0 0.891969 0 1.99219V66.0078C0 67.108 0.891969 68 1.99219 68H66.0078C67.108 68 68 67.108 68 66.0078V1.99219C68 0.891969 67.108 0 66.0078 0ZM64.0156 48.078H7.17201C8.05494 45.1359 11.8111 33.83 14.2214 33.2023C15.3005 33.2327 16.0872 34.7426 17.1642 37.0423C17.8011 38.4027 18.4599 39.8094 19.3816 40.9555C20.6327 42.5113 22.1664 43.3002 23.9399 43.3002C26.448 43.3002 27.8969 40.8981 28.7685 39.0914C30.8784 34.68 32.5015 27.427 34.7817 23.1139C35.5449 21.6583 36.7021 19.9229 37.8813 19.9229C43.5735 20.5626 42.2293 36.9897 49.3397 37.0546C55.6959 36.6775 55.3602 26.9651 64.0155 29.2334V48.078H64.0156ZM64.0156 3.98438V7.96875H25.7692L23.113 3.98438H64.0156ZM18.3245 3.98438L23.0456 11.0659C23.415 11.6203 24.0369 11.9531 24.7031 11.9531H64.0156V25.1503C58.4993 24.0057 54.6801 26.8178 51.8284 30.719C50.9121 31.8749 49.9646 33.0703 49.343 33.0718C48.2538 32.2547 47.406 29.0558 46.8014 27.1798C45.4649 22.5816 43.2708 15.821 37.8813 15.9388C30.3005 15.951 28.1006 31.4581 25.436 36.8058C24.5679 38.7639 24.009 39.2234 23.8679 39.3144C22.6853 39.2565 21.9044 37.77 20.7724 35.3528C19.514 32.6658 17.948 29.3215 14.3335 29.2197C9.73874 29.0878 6.79097 36.5172 3.98438 45.0141V3.98438H18.3245ZM3.98438 64.0156V52.0624H64.0156V64.0156H3.98438Z" fill="white"/>
<path d="M21.0031 56.0469H10.8701C8.23307 56.1433 8.22855 59.933 10.8701 60.0312H21.0033C22.1035 60.0312 22.9954 59.1393 22.9954 58.0391C22.9954 56.9388 22.1035 56.0469 21.0031 56.0469Z" fill="white"/>
<path d="M39.0658 56.0469H28.9326C26.2956 56.1433 26.2911 59.933 28.9326 60.0312H39.0658C40.166 60.0312 41.0579 59.1393 41.0579 58.0391C41.0579 56.9388 40.1661 56.0469 39.0658 56.0469Z" fill="white"/>
<path d="M57.1283 56.0469H46.9951C44.3581 56.1433 44.3536 59.933 46.9951 60.0312H57.1283C58.2285 60.0312 59.1205 59.1393 59.1205 58.0391C59.1205 56.9388 58.2286 56.0469 57.1283 56.0469Z" fill="white"/>
</svg>
