<svg width="65" height="65" viewBox="0 0 65 65" fill="none" xmlns="http://www.w3.org/2000/svg">
<path d="M58.6413 17.6629H55.2801L38.9443 1.32725C38.1167 0.499641 36.7745 0.499641 35.9468 1.32725L31.087 6.18727L26.227 1.32725C25.3994 0.499641 24.0572 0.499641 23.2295 1.32725L6.89381 17.6629H2.11961C0.948975 17.6629 0 18.612 0 19.7825V62.1738C0 63.3444 0.948975 64.2935 2.11961 64.2935H50.163H58.6413C62.1475 64.2935 65 61.4409 65 57.9348V49.4564V32.5V24.0216C65 20.5153 62.1475 17.6629 58.6413 17.6629ZM37.4457 5.82355L49.2852 17.6631H42.5628L34.0845 9.18476L37.4457 5.82355ZM24.7283 5.82355L29.5883 10.6836L36.5678 17.6631H12.8888L24.7283 5.82355ZM52.2826 57.9348C52.2826 59.1035 51.3317 60.0544 50.163 60.0544H4.23909V21.9022H7.77169H41.6847H50.163C51.3317 21.9022 52.2826 22.853 52.2826 24.0218V30.3805H45.9239C40.0802 30.3805 35.3261 35.1346 35.3261 40.9783C35.3261 46.8219 40.0802 51.576 45.9239 51.576H52.2826V57.9348ZM60.7609 57.9348C60.7609 59.1035 59.81 60.0544 58.6413 60.0544H56.1572C56.3925 59.3909 56.5218 58.6778 56.5218 57.9348V51.576H60.7609V57.9348ZM60.7609 47.3368H54.4022H45.9239C42.4177 47.3368 39.5652 44.4843 39.5652 40.9781C39.5652 37.4719 42.4177 34.6194 45.9239 34.6194H54.4022H60.7609V47.3368ZM60.7609 30.3803H56.5218V24.0216C56.5218 23.2787 56.3926 22.5655 56.1572 21.902H58.6413C59.81 21.902 60.7609 22.8528 60.7609 24.0216V30.3803Z" fill="white"/>
<path d="M45.9243 43.0979C47.0949 43.0979 48.0439 42.1489 48.0439 40.9782C48.0439 39.8076 47.0949 38.8586 45.9243 38.8586C44.7537 38.8586 43.8047 39.8076 43.8047 40.9782C43.8047 42.1489 44.7537 43.0979 45.9243 43.0979Z" fill="white"/>
</svg>
