<svg width="137" height="137" viewBox="0 0 137 137" fill="none" xmlns="http://www.w3.org/2000/svg">
<path d="M58.5 5.7735C64.688 2.20085 72.312 2.20085 78.5 5.7735L117.823 28.4765C124.011 32.0492 127.823 38.6517 127.823 45.797V91.203C127.823 98.3483 124.011 104.951 117.823 108.524L78.5 131.227C72.312 134.799 64.688 134.799 58.5 131.227L19.1773 108.523C12.9892 104.951 9.17726 98.3483 9.17726 91.203V45.797C9.17726 38.6517 12.9892 32.0492 19.1773 28.4765L58.5 5.7735Z" fill="#192347"/>
<g clip-path="url(#clip0)">
<path d="M87.2057 83.5294V43H43.5586V89.7647C43.5586 93.2028 46.3557 96 49.7939 96H83.8628C89.1442 96 93.4409 91.7033 93.4409 86.4219V83.5294H87.2057ZM52.9115 89.7647C52.9115 91.4838 51.513 92.8824 49.7939 92.8824C48.0748 92.8824 46.6762 91.4838 46.6762 89.7647V46.1176H84.088V83.5294H52.9115V89.7647ZM83.8628 92.8824H55.1924C55.7243 91.9647 56.0292 90.8995 56.0292 89.7647V86.6471H90.3195C90.2002 90.1054 87.3497 92.8824 83.8628 92.8824Z" fill="white"/>
<path d="M49.7949 61.7059H80.9714V49.2353H49.7949V61.7059ZM52.9126 52.3529H77.8537V58.5882H52.9126V52.3529Z" fill="white"/>
<path d="M49.7949 77.2941H80.9714V80.4118H49.7949V77.2941Z" fill="white"/>
<path d="M49.7949 71.0588H65.3832V74.1765H49.7949V71.0588Z" fill="white"/>
<path d="M68.5 64.8235H80.9706V67.9412H68.5V64.8235Z" fill="white"/>
<path d="M68.5 71.0588H80.9706V74.1765H68.5V71.0588Z" fill="white"/>
<path d="M49.7949 64.8235H65.3832V67.9412H49.7949V64.8235Z" fill="white"/>
</g>
<defs>
<clipPath id="clip0">
<rect width="53" height="53" fill="white" transform="translate(42 43)"/>
</clipPath>
</defs>
</svg>
