<svg width="137" height="137" viewBox="0 0 137 137" fill="none" xmlns="http://www.w3.org/2000/svg">
<path d="M58.5 5.7735C64.688 2.20085 72.312 2.20085 78.5 5.7735L117.823 28.4765C124.011 32.0492 127.823 38.6517 127.823 45.797V91.203C127.823 98.3483 124.011 104.951 117.823 108.524L78.5 131.227C72.312 134.799 64.688 134.799 58.5 131.227L19.1773 108.523C12.9892 104.951 9.17726 98.3483 9.17726 91.203V45.797C9.17726 38.6517 12.9892 32.0492 19.1773 28.4765L58.5 5.7735Z" fill="#192347"/>
<path d="M64.7617 67.8294C64.7617 74.1467 69.9012 79.2862 76.2185 79.2862C82.5358 79.2862 87.6753 74.1467 87.6753 67.8294C87.6753 61.5121 82.5358 56.3726 76.2185 56.3726C69.9012 56.3726 64.7617 61.5121 64.7617 67.8294ZM77.7808 59.6462C81.1243 60.2833 83.7646 62.9236 84.4017 66.2671H77.7808V59.6462ZM76.8656 69.3917H84.4017C83.6682 73.2416 80.2788 76.1616 76.2185 76.1616C74.4847 76.1616 72.8733 75.6287 71.5383 74.719L76.8656 69.3917ZM74.6562 59.6462V67.1823L69.3289 72.5096C68.4192 71.1747 67.8863 69.5632 67.8863 67.8294C67.8863 63.7691 70.8063 60.3797 74.6562 59.6462Z" fill="white"/>
<path d="M56.9492 56.3726H48.617C47.7542 56.3726 47.0547 57.072 47.0547 57.9349C47.0547 58.7977 47.7542 59.4971 48.617 59.4971H56.9492C57.812 59.4971 58.5115 58.7977 58.5115 57.9349C58.5115 57.072 57.812 56.3726 56.9492 56.3726Z" fill="white"/>
<path d="M56.9492 62.6217H48.617C47.7542 62.6217 47.0547 63.3212 47.0547 64.184C47.0547 65.0468 47.7542 65.7463 48.617 65.7463H56.9492C57.812 65.7463 58.5115 65.0468 58.5115 64.184C58.5115 63.3212 57.812 62.6217 56.9492 62.6217Z" fill="white"/>
<path d="M89.4441 37.625H45.4916C42.9072 37.625 40.8047 39.7275 40.8047 42.3119V86.2644C40.8047 88.8487 42.9072 90.9512 45.4916 90.9512H89.4441C92.0285 90.9512 94.1309 88.8487 94.1309 86.2644V42.3119C94.1309 39.7275 92.0285 37.625 89.4441 37.625ZM91.0064 86.2644C91.0064 87.1258 90.3056 87.8267 89.4441 87.8267H45.4916C44.6301 87.8267 43.9293 87.1258 43.9293 86.2644V53.2479H69.4467C69.8015 53.2479 70.1457 53.1272 70.4226 52.9056L75.2024 49.0818H91.0064V86.2644ZM91.0064 45.9572H74.6544C74.2996 45.9572 73.9554 46.0779 73.6784 46.2996L68.8987 50.1233H43.9293V42.3119C43.9293 41.4504 44.6301 40.7496 45.4916 40.7496H89.4441C90.3056 40.7496 91.0064 41.4504 91.0064 42.3119V45.9572Z" fill="white"/>
<path d="M50.7 43.8741H48.617C47.7542 43.8741 47.0547 44.5736 47.0547 45.4364C47.0547 46.2992 47.7542 46.9987 48.617 46.9987H50.7C51.5628 46.9987 52.2623 46.2992 52.2623 45.4364C52.2623 44.5736 51.5628 43.8741 50.7 43.8741Z" fill="white"/>
<path d="M59.0321 43.8741H56.949C56.0862 43.8741 55.3867 44.5736 55.3867 45.4364C55.3867 46.2992 56.0862 46.9987 56.949 46.9987H59.0321C59.8949 46.9987 60.5944 46.2992 60.5944 45.4364C60.5944 44.5736 59.8949 43.8741 59.0321 43.8741Z" fill="white"/>
<path d="M67.3641 43.8741H65.281C64.4182 43.8741 63.7188 44.5736 63.7188 45.4364C63.7188 46.2992 64.4182 46.9987 65.281 46.9987H67.3641C68.2269 46.9987 68.9264 46.2992 68.9264 45.4364C68.9264 44.5736 68.2269 43.8741 67.3641 43.8741Z" fill="white"/>
<path d="M61.1131 71.9955C60.2503 71.9955 59.5508 72.695 59.5508 73.5578V82.9315C59.5508 83.7943 60.2503 84.4938 61.1131 84.4938C61.9759 84.4938 62.6754 83.7943 62.6754 82.9315V73.5578C62.6754 72.695 61.9759 71.9955 61.1131 71.9955Z" fill="white"/>
<path d="M54.8631 75.12C54.0003 75.12 53.3008 75.8195 53.3008 76.6823V82.9315C53.3008 83.7943 54.0003 84.4937 54.8631 84.4937C55.7259 84.4937 56.4254 83.7943 56.4254 82.9315V76.6823C56.4254 75.8195 55.7259 75.12 54.8631 75.12Z" fill="white"/>
<path d="M48.617 78.2446C47.7542 78.2446 47.0547 78.9441 47.0547 79.8069V82.9315C47.0547 83.7943 47.7542 84.4938 48.617 84.4938C49.4798 84.4938 50.1793 83.7943 50.1793 82.9315V79.8069C50.1793 78.9441 49.4798 78.2446 48.617 78.2446Z" fill="white"/>
</svg>
