<svg width="137" height="137" viewBox="0 0 137 137" fill="none" xmlns="http://www.w3.org/2000/svg">
<path d="M58.5 5.7735C64.688 2.20085 72.312 2.20085 78.5 5.7735L117.823 28.4765C124.011 32.0492 127.823 38.6517 127.823 45.797V91.203C127.823 98.3483 124.011 104.951 117.823 108.524L78.5 131.227C72.312 134.799 64.688 134.799 58.5 131.227L19.1773 108.523C12.9892 104.951 9.17726 98.3483 9.17726 91.203V45.797C9.17726 38.6517 12.9892 32.0492 19.1773 28.4765L58.5 5.7735Z" fill="#192347"/>
<g clip-path="url(#clip0)">
<path d="M50.7637 82.4746H68.033C68.7916 89.3875 74.6572 95 81.9219 95C89.6301 95 95.8965 88.6415 95.8965 80.9219C95.8965 77.6021 94.7319 74.5492 92.791 72.1493V42H46.1055V70.0527H43V74.7109C43 78.9919 46.4827 82.4746 50.7637 82.4746ZM81.9219 91.8945C75.9285 91.8945 71.0527 86.9723 71.0527 80.9219C71.0527 74.9285 75.9285 70.0527 81.9219 70.0527C87.9153 70.0527 92.791 74.9285 92.791 80.9219C92.791 86.9723 87.9153 91.8945 81.9219 91.8945ZM49.2109 45.1055H89.6855V69.3079C87.4636 67.8178 84.7924 66.9473 81.9219 66.9473C78.6017 66.9473 75.5492 68.1118 73.1489 70.0527H49.2109V45.1055ZM46.1055 73.157H70.3079C69.0904 74.973 68.2873 77.0898 68.0342 79.3691H61.7363V76.2637H58.6309V79.3691H55.5254V76.2637H52.4199V79.3691H50.7637C48.1952 79.3691 46.1055 77.2794 46.1055 74.7109V73.157Z" fill="white"/>
<path d="M52.4219 57.5273H61.7383V48.2109H52.4219V57.5273ZM55.5273 51.3164H58.6328V54.4219H55.5273V51.3164Z" fill="white"/>
<path d="M74.1602 48.2109H64.8438V57.5273H74.1602V48.2109ZM71.0547 54.4219H67.9492V51.3164H71.0547V54.4219Z" fill="white"/>
<path d="M86.582 48.2109H77.2656V57.5273H86.582V48.2109ZM83.4766 54.4219H80.3711V51.3164H83.4766V54.4219Z" fill="white"/>
<path d="M52.4219 60.6328H61.7383V63.7383H52.4219V60.6328Z" fill="white"/>
<path d="M64.8438 60.6328H74.1602V63.7383H64.8438V60.6328Z" fill="white"/>
<path d="M77.2656 60.6328H86.582V63.7383H77.2656V60.6328Z" fill="white"/>
<path d="M80.3693 83.384L76.8089 79.824L74.6133 82.0197L80.3693 87.7761L89.2308 78.9142L87.0352 76.7186L80.3693 83.384Z" fill="white"/>
</g>
<defs>
<clipPath id="clip0">
<rect width="53" height="53" fill="white" transform="translate(43 42)"/>
</clipPath>
</defs>
</svg>
