<svg width="137" height="137" viewBox="0 0 137 137" fill="none" xmlns="http://www.w3.org/2000/svg">
<path d="M58.5 5.7735C64.688 2.20085 72.312 2.20085 78.5 5.7735L117.823 28.4765C124.011 32.0492 127.823 38.6517 127.823 45.797V91.203C127.823 98.3483 124.011 104.951 117.823 108.524L78.5 131.227C72.312 134.799 64.688 134.799 58.5 131.227L19.1773 108.523C12.9892 104.951 9.17726 98.3483 9.17726 91.203V45.797C9.17726 38.6517 12.9892 32.0492 19.1773 28.4765L58.5 5.7735Z" fill="#192347"/>
<path d="M90.166 41H44.834C42.1685 41 40 43.1685 40 45.834V91.166C40 93.8315 42.1685 96 44.834 96H90.166C92.8315 96 95 93.8315 95 91.166V45.834C95 43.1685 92.8315 41 90.166 41ZM43.2227 45.834C43.2227 44.9455 43.9455 44.2227 44.834 44.2227H52.998V53.8906H43.2227V45.834ZM91.7773 91.166C91.7773 92.0545 91.0545 92.7773 90.166 92.7773H44.834C43.9455 92.7773 43.2227 92.0545 43.2227 91.166V57.1133H91.7773V91.166ZM91.7773 53.8906H56.2207V44.2227H90.166C91.0545 44.2227 91.7773 44.9455 91.7773 45.834V53.8906Z" fill="white"/>
<path d="M86.9414 47.4453H83.6113C82.7214 47.4453 82 48.1668 82 49.0566C82 49.9465 82.7214 50.668 83.6113 50.668H86.9414C87.8313 50.668 88.5527 49.9465 88.5527 49.0566C88.5527 48.1668 87.8313 47.4453 86.9414 47.4453Z" fill="white"/>
<path d="M77.1699 47.4453H73.9473C73.0574 47.4453 72.3359 48.1668 72.3359 49.0566C72.3359 49.9465 73.0574 50.668 73.9473 50.668H77.1699C78.0598 50.668 78.7812 49.9465 78.7812 49.0566C78.7812 48.1668 78.0598 47.4453 77.1699 47.4453Z" fill="white"/>
<path d="M67.498 47.4453H64.2754C63.3855 47.4453 62.6641 48.1668 62.6641 49.0566C62.6641 49.9465 63.3855 50.668 64.2754 50.668H67.498C68.3879 50.668 69.1094 49.9465 69.1094 49.0566C69.1094 48.1668 68.3879 47.4453 67.498 47.4453Z" fill="white"/>
<path d="M82 80.1639V78.168C82 75.5025 79.8315 73.334 77.166 73.334H69.1094V69.8342C70.9849 69.169 72.332 67.378 72.332 65.2773C72.332 62.6119 70.1635 60.4434 67.498 60.4434C64.8326 60.4434 62.6641 62.6119 62.6641 65.2773C62.6641 67.378 64.0112 69.169 65.8867 69.8342V73.334H57.8301C55.1646 73.334 52.9961 75.5025 52.9961 78.168V80.1639C51.1206 80.829 49.7734 82.6201 49.7734 84.7207C49.7734 87.3862 51.942 89.5547 54.6074 89.5547C57.2729 89.5547 59.4414 87.3862 59.4414 84.7207C59.4414 82.6201 58.0942 80.829 56.2188 80.1639V78.168C56.2188 77.2795 56.9416 76.5566 57.8301 76.5566H65.8867V80.1639C64.0112 80.829 62.6641 82.6201 62.6641 84.7207C62.6641 87.3862 64.8326 89.5547 67.498 89.5547C70.1635 89.5547 72.332 87.3862 72.332 84.7207C72.332 82.6201 70.9849 80.829 69.1094 80.1639V76.5566H77.166C78.0545 76.5566 78.7773 77.2795 78.7773 78.168V80.1639C76.9019 80.829 75.5547 82.6201 75.5547 84.7207C75.5547 87.3862 77.7232 89.5547 80.3887 89.5547C83.0541 89.5547 85.2227 87.3862 85.2227 84.7207C85.2227 82.6201 83.8755 80.829 82 80.1639ZM54.6074 86.332C53.7189 86.332 52.9961 85.6092 52.9961 84.7207C52.9961 83.8322 53.7189 83.1094 54.6074 83.1094C55.4959 83.1094 56.2188 83.8322 56.2188 84.7207C56.2188 85.6092 55.4959 86.332 54.6074 86.332ZM67.498 86.332C66.6096 86.332 65.8867 85.6092 65.8867 84.7207C65.8867 83.8322 66.6096 83.1094 67.498 83.1094C68.3865 83.1094 69.1094 83.8322 69.1094 84.7207C69.1094 85.6092 68.3865 86.332 67.498 86.332ZM67.498 66.8887C66.6096 66.8887 65.8867 66.1658 65.8867 65.2773C65.8867 64.3889 66.6096 63.666 67.498 63.666C68.3865 63.666 69.1094 64.3889 69.1094 65.2773C69.1094 66.1658 68.3865 66.8887 67.498 66.8887ZM80.3887 86.332C79.5002 86.332 78.7773 85.6092 78.7773 84.7207C78.7773 83.8322 79.5002 83.1094 80.3887 83.1094C81.2772 83.1094 82 83.8322 82 84.7207C82 85.6092 81.2772 86.332 80.3887 86.332Z" fill="white"/>
</svg>
