<svg width="137" height="137" viewBox="0 0 137 137" fill="none" xmlns="http://www.w3.org/2000/svg">
<path d="M58.5 5.7735C64.688 2.20085 72.312 2.20085 78.5 5.7735L117.823 28.4765C124.011 32.0492 127.823 38.6517 127.823 45.797V91.203C127.823 98.3483 124.011 104.951 117.823 108.524L78.5 131.226C72.312 134.799 64.688 134.799 58.5 131.226L19.1773 108.524C12.9892 104.951 9.17726 98.3483 9.17726 91.203V45.797C9.17726 38.6517 12.9892 32.0492 19.1773 28.4765L58.5 5.7735Z" fill="#192347"/>
<path d="M79.8184 39.6562H42.5527C41.6952 39.6562 41 40.3515 41 41.209V87.791C41 88.6485 41.6952 89.3438 42.5527 89.3438H79.8184C80.6759 89.3438 81.3711 88.6485 81.3711 87.791V41.209C81.3711 40.3515 80.6759 39.6562 79.8184 39.6562ZM47.2109 86.2383H44.1055V42.7617H54.3315C54.3202 42.773 47.6544 49.4389 47.6649 49.4284C47.3743 49.7195 47.2109 50.1217 47.2109 50.5254V86.2383ZM56.5273 44.9576V48.9727H52.5123L56.5273 44.9576ZM78.2656 86.2383H50.3164V52.0781H58.0801C58.9376 52.0781 59.6328 51.3829 59.6328 50.5254V42.7617H78.2656V86.2383Z" fill="white"/>
<path d="M92.4473 45.8672H86.2363C85.3788 45.8672 84.6836 46.5624 84.6836 47.4199V81.5801C84.6836 81.8212 84.7397 82.0588 84.8475 82.2745L87.9529 88.4854C88.2161 89.0115 88.7536 89.3438 89.3418 89.3438C89.93 89.3438 90.4675 89.0115 90.7307 88.4854L93.8361 82.2745C93.944 82.0588 94 81.8211 94 81.5801V47.4199C94 46.5624 93.3048 45.8672 92.4473 45.8672ZM90.8945 48.9727V52.0781H87.7891V48.9727H90.8945ZM89.3418 84.319L87.7891 81.2135V55.1836H90.8945V81.2135L89.3418 84.319Z" fill="white"/>
<path d="M54.9746 61.3945C54.1171 61.3945 53.4219 62.0897 53.4219 62.9473C53.4219 63.8048 54.1171 64.5 54.9746 64.5H73.6074C74.4649 64.5 75.1602 63.8048 75.1602 62.9473C75.1602 62.0897 74.4649 61.3945 73.6074 61.3945H54.9746Z" fill="white"/>
<path d="M73.6074 67.6055H54.9746C54.1171 67.6055 53.4219 68.3007 53.4219 69.1582C53.4219 70.0157 54.1171 70.7109 54.9746 70.7109H73.6074C74.4649 70.7109 75.1602 70.0157 75.1602 69.1582C75.1602 68.3007 74.4649 67.6055 73.6074 67.6055Z" fill="white"/>
<path d="M73.6074 73.8164H54.9746C54.1171 73.8164 53.4219 74.5116 53.4219 75.3691C53.4219 76.2267 54.1171 76.9219 54.9746 76.9219H73.6074C74.4649 76.9219 75.1602 76.2267 75.1602 75.3691C75.1602 74.5116 74.4649 73.8164 73.6074 73.8164Z" fill="white"/>
</svg>
