<svg width="137" height="137" viewBox="0 0 137 137" fill="none" xmlns="http://www.w3.org/2000/svg">
<path d="M58.5 5.7735C64.688 2.20085 72.312 2.20085 78.5 5.7735L117.823 28.4765C124.011 32.0492 127.823 38.6517 127.823 45.797V91.203C127.823 98.3483 124.011 104.951 117.823 108.524L78.5 131.227C72.312 134.799 64.688 134.799 58.5 131.227L19.1773 108.523C12.9892 104.951 9.17726 98.3483 9.17726 91.203V45.797C9.17726 38.6517 12.9892 32.0492 19.1773 28.4765L58.5 5.7735Z" fill="#192347"/>
<path d="M94.3887 41H87.9434C87.0535 41 86.332 41.7214 86.332 42.6113V44.2227H73.0568C72.3917 42.3473 70.6006 41 68.5 41C66.3994 41 64.6083 42.3473 63.9432 44.2227H50.668V42.6113C50.668 41.7214 49.9465 41 49.0566 41H42.6113C41.7214 41 41 41.7214 41 42.6113V49.0566C41 49.9465 41.7214 50.668 42.6113 50.668H49.0566C49.9465 50.668 50.668 49.9465 50.668 49.0566V47.4238H57.3686C51.5554 51.1056 48.0216 57.3254 47.5966 63.9283C45.6984 64.581 44.3301 66.3831 44.3301 68.5C44.3301 71.1655 46.4986 73.334 49.1641 73.334C51.8295 73.334 53.998 71.1655 53.998 68.5C53.998 66.4182 52.6751 64.6395 50.8259 63.9604C51.398 56.3713 56.8628 49.835 64.1705 47.9805C64.9626 49.5716 66.6052 50.668 68.5 50.668C70.3948 50.668 72.0374 49.5716 72.8295 47.9806C80.1373 49.8351 85.602 56.3714 86.1741 63.9605C84.3249 64.6395 83.002 66.4182 83.002 68.5C83.002 71.1655 85.1705 73.334 87.8359 73.334C90.5014 73.334 92.6699 71.1655 92.6699 68.5C92.6699 66.3831 91.3016 64.581 89.4034 63.9283C88.9775 57.3122 85.4332 51.1199 79.6314 47.4453H86.332V49.0566C86.332 49.9465 87.0535 50.668 87.9434 50.668H94.3887C95.2786 50.668 96 49.9465 96 49.0566V42.6113C96 41.7214 95.2786 41 94.3887 41ZM47.4453 47.4453H44.2227V44.2227H47.4453V47.4453ZM49.1641 70.1113C48.2756 70.1113 47.5527 69.3885 47.5527 68.5C47.5527 67.6115 48.2756 66.8887 49.1641 66.8887C50.0525 66.8887 50.7754 67.6115 50.7754 68.5C50.7754 69.3885 50.0525 70.1113 49.1641 70.1113ZM68.5 47.4453C67.6115 47.4453 66.8887 46.7225 66.8887 45.834C66.8887 44.9455 67.6115 44.2227 68.5 44.2227C69.3885 44.2227 70.1113 44.9455 70.1113 45.834C70.1113 46.7225 69.3885 47.4453 68.5 47.4453ZM87.8359 66.8887C88.7244 66.8887 89.4473 67.6115 89.4473 68.5C89.4473 69.3885 88.7244 70.1113 87.8359 70.1113C86.9475 70.1113 86.2246 69.3885 86.2246 68.5C86.2246 67.6115 86.9475 66.8887 87.8359 66.8887ZM92.7773 47.4453H89.5547V44.2227H92.7773V47.4453Z" fill="white"/>
<path d="M82.7332 74.0514L69.8426 54.7156C69.8421 54.715 69.8416 54.7143 69.8412 54.7136C69.8366 54.7067 69.8315 54.7001 69.8268 54.6934C69.8046 54.6613 69.7813 54.6303 69.7571 54.6001C69.078 53.7564 67.7851 53.8134 67.1771 54.6934C67.1724 54.7001 67.1673 54.7067 67.1627 54.7136C67.1623 54.7143 67.1617 54.7149 67.1613 54.7156L54.2707 74.0515C53.8445 74.6906 53.9289 75.5416 54.472 76.0847C57.6868 79.2995 59.733 83.5019 60.2904 87.9979C60.0402 88.2002 59.7986 88.4167 59.5696 88.6511C58.0561 90.1993 57.2226 92.237 57.2226 94.3887C57.2226 95.2785 57.9441 96 58.834 96H78.1699C79.0598 96 79.7812 95.2785 79.7812 94.3887C79.7812 92.237 78.9478 90.1993 77.4344 88.651C77.2053 88.4166 76.9638 88.2001 76.7135 87.9978C77.2708 83.5016 79.317 79.2992 82.5318 76.0847C83.075 75.5416 83.1593 74.6905 82.7332 74.0514ZM68.5019 73.334C69.3904 73.334 70.1133 74.0568 70.1133 74.9453C70.1133 75.8338 69.3904 76.5566 68.5019 76.5566C67.6135 76.5566 66.8906 75.8338 66.8906 74.9453C66.8906 74.0568 67.6135 73.334 68.5019 73.334ZM60.7201 92.7773C61.3905 90.8617 63.2079 89.4472 65.2793 89.4472H71.7246C73.796 89.4472 75.6134 90.8617 76.2838 92.7773H60.7201ZM73.6845 86.4698C73.0507 86.3081 72.3937 86.2246 71.7246 86.2246H65.2793C64.6102 86.2246 63.9532 86.3081 63.3194 86.4699C62.5653 82.127 60.6069 78.0673 57.6636 74.7718L66.8906 60.9313V70.3886C65.0151 71.0537 63.668 72.8448 63.668 74.9454C63.668 77.6109 65.8365 79.7794 68.5019 79.7794C71.1674 79.7794 73.3359 77.6109 73.3359 74.9454C73.3359 72.8448 71.9887 71.0537 70.1133 70.3886V60.9313L79.3404 74.7718C76.397 78.067 74.4385 82.1268 73.6845 86.4698Z" fill="white"/>
</svg>
