<svg width="137" height="137" viewBox="0 0 137 137" fill="none" xmlns="http://www.w3.org/2000/svg">
<path d="M58.5 5.7735C64.688 2.20085 72.312 2.20085 78.5 5.7735L117.823 28.4765C124.011 32.0492 127.823 38.6517 127.823 45.797V91.203C127.823 98.3483 124.011 104.951 117.823 108.524L78.5 131.227C72.312 134.799 64.688 134.799 58.5 131.227L19.1773 108.523C12.9892 104.951 9.17726 98.3483 9.17726 91.203V45.797C9.17726 38.6517 12.9892 32.0492 19.1773 28.4765L58.5 5.7735Z" fill="#192347"/>
<path d="M90.166 41.1074H44.834C42.1685 41.1074 40 43.2759 40 45.9414V91.0586C40 93.7241 42.1685 95.8926 44.834 95.8926H90.166C92.8315 95.8926 95 93.7241 95 91.0586V45.9414C95 43.2759 92.8315 41.1074 90.166 41.1074ZM44.834 44.3301H90.166C91.0545 44.3301 91.7773 45.0529 91.7773 45.9414V53.998H43.2227V45.9414C43.2227 45.0529 43.9455 44.3301 44.834 44.3301ZM90.166 92.6699H44.834C43.9455 92.6699 43.2227 91.9471 43.2227 91.0586V57.2207H91.7773V91.0586C91.7773 91.9471 91.0545 92.6699 90.166 92.6699Z" fill="white"/>
<path d="M72.9692 62.185C72.1513 61.8345 71.2039 62.2134 70.8534 63.0313L61.1854 85.5899C60.8348 86.4078 61.2138 87.3551 62.0317 87.7056C62.8499 88.0563 63.7971 87.6771 64.1475 86.8594L73.8154 64.3008C74.1661 63.4828 73.7871 62.5355 72.9692 62.185Z" fill="white"/>
<path d="M59.0898 67.4934C58.5338 66.7985 57.5197 66.6859 56.8251 67.2418L48.7684 73.6871C47.9629 74.3313 47.9623 75.5588 48.7684 76.2036L56.8251 82.6489C57.52 83.2049 58.5342 83.0921 59.0898 82.3973C59.6458 81.7024 59.5332 80.6883 58.8382 80.1325L52.3544 74.9453L58.8382 69.7582C59.5332 69.2023 59.6458 68.1884 59.0898 67.4934Z" fill="white"/>
<path d="M86.2293 73.6871L78.1726 67.2418C77.4777 66.6858 76.4637 66.7985 75.9079 67.4934C75.3519 68.1883 75.4645 69.2023 76.1595 69.7581L82.6433 74.9453L76.1595 80.1324C75.4645 80.6883 75.3519 81.7023 75.9079 82.3972C76.4645 83.0928 77.4787 83.2041 78.1726 82.6488L86.2293 76.2034C87.0348 75.5592 87.0354 74.3318 86.2293 73.6871Z" fill="white"/>
<path d="M48.166 50.7754C49.0559 50.7754 49.7773 50.054 49.7773 49.1641C49.7773 48.2742 49.0559 47.5527 48.166 47.5527C47.2761 47.5527 46.5547 48.2742 46.5547 49.1641C46.5547 50.054 47.2761 50.7754 48.166 50.7754Z" fill="white"/>
<path d="M54.6113 50.7754C55.5012 50.7754 56.2227 50.054 56.2227 49.1641C56.2227 48.2742 55.5012 47.5527 54.6113 47.5527C53.7214 47.5527 53 48.2742 53 49.1641C53 50.054 53.7214 50.7754 54.6113 50.7754Z" fill="white"/>
<path d="M61.0566 50.7754C61.9466 50.7754 62.668 50.054 62.668 49.1641C62.668 48.2742 61.9466 47.5527 61.0566 47.5527C60.1667 47.5527 59.4453 48.2742 59.4453 49.1641C59.4453 50.054 60.1667 50.7754 61.0566 50.7754Z" fill="white"/>
<path d="M77.166 50.7754H86.834C87.7239 50.7754 88.4453 50.0539 88.4453 49.1641C88.4453 48.2742 87.7239 47.5527 86.834 47.5527H77.166C76.2761 47.5527 75.5547 48.2742 75.5547 49.1641C75.5547 50.0539 76.2761 50.7754 77.166 50.7754Z" fill="white"/>
</svg>
