<svg width="137" height="137" viewBox="0 0 137 137" fill="none" xmlns="http://www.w3.org/2000/svg">
<path d="M58.5 5.7735C64.688 2.20085 72.312 2.20085 78.5 5.7735L117.823 28.4765C124.011 32.0492 127.823 38.6517 127.823 45.797V91.203C127.823 98.3483 124.011 104.951 117.823 108.524L78.5 131.227C72.312 134.799 64.688 134.799 58.5 131.227L19.1773 108.523C12.9892 104.951 9.17726 98.3483 9.17726 91.203V45.797C9.17726 38.6517 12.9892 32.0492 19.1773 28.4765L58.5 5.7735Z" fill="#192347"/>
<g clip-path="url(#clip0)">
<path d="M47.5527 60.5586C50.2181 60.5586 52.3867 58.39 52.3867 55.7246C52.3867 55.3948 52.3531 55.0729 52.2902 54.7612L57.7289 51.4982C58.0629 51.8637 58.4317 52.1994 58.832 52.5007V60.8355C58.3277 60.6568 57.7855 60.5586 57.2207 60.5586C54.5553 60.5586 52.3867 62.7272 52.3867 65.3926V75.6136C52.3867 77.7654 53.2247 79.7888 54.7466 81.3103C55.5888 82.3971 58.832 84.3072 58.832 88.7329V91.3887C58.832 92.2787 59.5534 93 60.4434 93H83.002C83.892 93 84.6133 92.2787 84.6133 91.3887V87.7716C84.6133 84.7533 85.9145 82.5398 85.9644 82.4059C87.1889 79.9579 87.8359 77.2165 87.8359 74.4794V62.1699C87.8359 59.5045 85.6674 57.3359 83.002 57.3359C82.3729 57.3359 81.7721 57.458 81.2203 57.6775C80.6613 55.6264 78.7827 54.1133 76.5566 54.1133C75.3196 54.1133 74.19 54.5803 73.334 55.347C72.478 54.5803 71.3484 54.1133 70.1113 54.1133C69.5465 54.1133 69.0044 54.2115 68.5 54.3902V52.5007C69.8067 51.5175 70.7777 50.1622 71.2959 48.6343L84.7257 50.3128C85.2007 52.4831 87.1364 54.1133 89.4473 54.1133C92.1127 54.1133 94.2812 51.9447 94.2812 49.2793C94.2812 46.6139 92.1127 44.4453 89.4473 44.4453C87.5594 44.4453 85.9221 45.5338 85.1265 47.1153L71.6966 45.4364C71.3786 41.2831 67.8995 38 63.666 38C59.2235 38 55.6094 41.6142 55.6094 46.0566C55.6094 46.9811 55.7705 47.8849 56.0714 48.7342L50.6298 51.9993C49.7931 51.3073 48.7205 50.8906 47.5527 50.8906C44.8873 50.8906 42.7188 53.0592 42.7188 55.7246C42.7188 58.39 44.8873 60.5586 47.5527 60.5586ZM89.4473 47.668C90.3356 47.668 91.0586 48.391 91.0586 49.2793C91.0586 50.1676 90.3356 50.8906 89.4473 50.8906C88.5589 50.8906 87.8359 50.1676 87.8359 49.2793C87.8359 48.391 88.5589 47.668 89.4473 47.668ZM70.1113 57.3359C70.9997 57.3359 71.7227 58.0589 71.7227 58.9473V65.3926C71.7227 66.2826 72.444 67.0039 73.334 67.0039C74.224 67.0039 74.9453 66.2826 74.9453 65.3926V58.9473C74.9453 58.0589 75.6683 57.3359 76.5566 57.3359C77.445 57.3359 78.168 58.0589 78.168 58.9473V68.6152C78.168 69.5052 78.8893 70.2266 79.7793 70.2266C80.6693 70.2266 81.3906 69.5052 81.3906 68.6152V62.1699C81.3906 61.2816 82.1136 60.5586 83.002 60.5586C83.8903 60.5586 84.6133 61.2816 84.6133 62.1699V74.4794C84.6133 76.7189 84.0837 78.9617 83.0821 80.965C83.0036 81.1769 81.3906 83.8519 81.3906 87.7716V89.7773H62.0547V88.7329C62.0547 82.745 57.7524 79.999 57.0252 79.0318C56.1121 78.1187 55.6094 76.9048 55.6094 75.6136V65.3926C55.6094 64.5042 56.3324 63.7812 57.2207 63.7812C58.109 63.7812 58.832 64.5042 58.832 65.3926V71.8379C58.832 72.7279 59.5534 73.4492 60.4434 73.4492C61.3334 73.4492 62.0547 72.7279 62.0547 71.8379V49.2793C62.0547 48.4149 62.7391 47.7095 63.5947 47.6717L64.1431 47.7401C64.7994 47.9441 65.2773 48.5567 65.2773 49.2793V65.3926C65.2773 66.2826 65.9987 67.0039 66.8887 67.0039C67.7787 67.0039 68.5 66.2826 68.5 65.3926V58.9473C68.5 58.0589 69.223 57.3359 70.1113 57.3359ZM63.666 41.2227C66.3314 41.2227 68.5 43.3912 68.5 46.0566C68.5 46.6118 68.4022 47.1544 68.2214 47.6642C67.5496 45.7751 65.7633 44.4663 63.7134 44.4466C63.7055 44.4462 63.6979 44.4462 63.6899 44.4457C63.682 44.4457 63.674 44.4453 63.666 44.4453C61.5667 44.4453 59.7766 45.7906 59.1107 47.6642C58.9298 47.1544 58.832 46.6118 58.832 46.0566C58.832 43.3912 61.0006 41.2227 63.666 41.2227ZM47.5527 54.1133C48.4411 54.1133 49.1641 54.8363 49.1641 55.7246C49.1641 56.6129 48.4411 57.3359 47.5527 57.3359C46.6644 57.3359 45.9414 56.6129 45.9414 55.7246C45.9414 54.8363 46.6644 54.1133 47.5527 54.1133Z" fill="white"/>
</g>
<defs>
<clipPath id="clip0">
<rect width="55" height="55" fill="white" transform="translate(41 38)"/>
</clipPath>
</defs>
</svg>
