<svg width="137" height="137" viewBox="0 0 137 137" fill="none" xmlns="http://www.w3.org/2000/svg">
<path d="M58.5 5.7735C64.688 2.20085 72.312 2.20085 78.5 5.7735L117.823 28.4765C124.011 32.0492 127.823 38.6517 127.823 45.797V91.203C127.823 98.3483 124.011 104.951 117.823 108.524L78.5 131.227C72.312 134.799 64.688 134.799 58.5 131.227L19.1773 108.523C12.9892 104.951 9.17726 98.3483 9.17726 91.203V45.797C9.17726 38.6517 12.9892 32.0492 19.1773 28.4765L58.5 5.7735Z" fill="#192347"/>
<path d="M81.1761 78.1377C82.7619 76.2259 84.0438 74.0666 84.9506 71.7616H86.5137C91.1932 71.7616 95 67.9544 95 63.2753C95 58.5957 91.1932 54.789 86.5137 54.789H84.9535C81.5651 46.1058 73.1069 40 63.2753 40C50.4115 40 40 50.4094 40 63.2753C40 76.1378 50.4099 86.5489 63.2753 86.5489C68.8461 86.5489 74.0259 84.6082 78.1419 81.1803L91.3321 94.3706C92.1709 95.2094 93.5318 95.2098 94.3706 94.3706C95.2098 93.5318 95.2098 92.1714 94.3706 91.3321L81.1761 78.1377ZM90.7031 63.2753C90.7031 65.5853 88.8237 67.4648 86.5137 67.4648C84.9821 67.4648 58.0431 67.4648 56.9374 67.4648C54.627 67.4648 52.748 65.5853 52.748 63.2753C52.748 60.9649 54.627 59.0858 56.9374 59.0858H86.5137C88.8237 59.0858 90.7031 60.9649 90.7031 63.2753ZM63.2753 82.252C52.8105 82.252 44.2969 73.7393 44.2969 63.2753C44.2969 52.8105 52.8105 44.2969 63.2753 44.2969C70.6744 44.2969 77.0937 48.5149 80.2501 54.789H56.9374C52.2578 54.789 48.4511 58.5957 48.4511 63.2753C48.4511 67.9544 52.2578 71.7616 56.9374 71.7616H80.2496C77.084 78.0525 70.6534 82.252 63.2753 82.252Z" fill="white"/>
</svg>
