<svg width="137" height="137" viewBox="0 0 137 137" fill="none" xmlns="http://www.w3.org/2000/svg">
<path d="M58.5 5.7735C64.688 2.20085 72.312 2.20085 78.5 5.7735L117.823 28.4765C124.011 32.0492 127.823 38.6517 127.823 45.797V91.203C127.823 98.3483 124.011 104.951 117.823 108.524L78.5 131.227C72.312 134.799 64.688 134.799 58.5 131.227L19.1773 108.523C12.9892 104.951 9.17726 98.3483 9.17726 91.203V45.797C9.17726 38.6517 12.9892 32.0492 19.1773 28.4765L58.5 5.7735Z" fill="#192347"/>
<g clip-path="url(#clip0)">
<path d="M89.7295 79.632C91.1021 78.3072 91.9584 76.4508 91.9584 74.3971C91.9584 70.3831 88.6929 67.1176 84.679 67.1176C80.6651 67.1176 77.3996 70.3831 77.3996 74.3971C77.3996 76.4508 78.2559 78.3072 79.6285 79.632C75.9129 81.4915 73.3555 85.3349 73.3555 89.7647V93H96.0025V89.7647C96.0025 85.3349 93.4451 81.4915 89.7295 79.632ZM80.6349 74.3971C80.6349 72.1671 82.449 70.3529 84.679 70.3529C86.909 70.3529 88.7231 72.1671 88.7231 74.3971C88.7231 76.627 86.909 78.4412 84.679 78.4412C82.449 78.4412 80.6349 76.627 80.6349 74.3971ZM76.5908 89.7647C76.5908 85.3049 80.2191 81.6765 84.679 81.6765C89.1389 81.6765 92.7672 85.3049 92.7672 89.7647H76.5908Z" fill="white"/>
<path d="M57.374 79.632C58.7467 78.3072 59.6029 76.4508 59.6029 74.3971C59.6029 70.3831 56.3375 67.1176 52.3235 67.1176C48.3096 67.1176 45.0441 70.3831 45.0441 74.3971C45.0441 76.4508 45.9004 78.3072 47.273 79.632C43.5574 81.4915 41 85.3349 41 89.7647V93H63.6471V89.7647C63.6471 85.3349 61.0897 81.4915 57.374 79.632ZM48.2794 74.3971C48.2794 72.1671 50.0935 70.3529 52.3235 70.3529C54.5535 70.3529 56.3676 72.1671 56.3676 74.3971C56.3676 76.627 54.5535 78.4412 52.3235 78.4412C50.0935 78.4412 48.2794 76.627 48.2794 74.3971ZM44.2353 89.7647C44.2353 85.3049 47.8637 81.6765 52.3235 81.6765C56.7834 81.6765 60.4118 85.3049 60.4118 89.7647H44.2353Z" fill="white"/>
<path d="M83.0591 52.5588C83.0591 44.5311 76.528 38 68.5002 38C60.4725 38 53.9414 44.5311 53.9414 52.5588C53.9414 60.5866 60.4724 67.1176 68.5002 67.1176C76.5281 67.1176 83.0591 60.5866 83.0591 52.5588ZM68.5002 63.8824C62.2564 63.8824 57.1767 58.8026 57.1767 52.5588C57.1767 46.315 62.2564 41.2353 68.5002 41.2353C74.744 41.2353 79.8238 46.315 79.8238 52.5588C79.8238 58.8026 74.744 63.8824 68.5002 63.8824Z" fill="white"/>
<path d="M66.8834 53.5064L63.1743 49.7974L60.8867 52.085L66.8834 58.0818L76.1155 48.8497L73.8279 46.5621L66.8834 53.5064Z" fill="white"/>
</g>
<defs>
<clipPath id="clip0">
<rect width="55" height="55" fill="white" transform="translate(41 38)"/>
</clipPath>
</defs>
</svg>
