<svg width="80" height="80" viewBox="0 0 80 80" fill="none" xmlns="http://www.w3.org/2000/svg">
<path d="M75.3125 21.25C75.3125 17.373 72.1582 14.2188 68.2812 14.2188C64.4043 14.2188 61.25 17.373 61.25 21.25C61.25 25.127 64.4043 28.2812 68.2812 28.2812C72.1582 28.2812 75.3125 25.127 75.3125 21.25ZM68.2812 23.5938C66.9891 23.5938 65.9375 22.5421 65.9375 21.25C65.9375 19.9579 66.9891 18.9062 68.2812 18.9062C69.5734 18.9062 70.625 19.9579 70.625 21.25C70.625 22.5421 69.5734 23.5938 68.2812 23.5938Z" fill="white"/>
<path d="M0 80H80V75.3125H75.3125V61.0938H80V40C80 33.5382 74.743 28.2812 68.2812 28.2812C61.8195 28.2812 56.5625 33.5382 56.5625 40V61.0938H61.25V75.3125H51.875V51.7188H32.9688V75.3125H28.2812V61.0938H9.375V75.3125H4.6875V0H0V80ZM61.25 56.4062V40C61.25 36.123 64.4043 32.9688 68.2812 32.9688C72.1582 32.9688 75.3125 36.123 75.3125 40V56.4062H70.625V75.3125H65.9375V56.4062H61.25ZM37.6562 56.4062H47.1875V75.3125H37.6562V56.4062ZM14.0625 65.7812H23.5938V75.3125H14.0625V65.7812Z" fill="white"/>
</svg>
