<svg width="80" height="80" viewBox="0 0 80 80" fill="none" xmlns="http://www.w3.org/2000/svg">
<g clip-path="url(#clip0)">
<path d="M62.9532 33.1105V2.71606H17.0466V33.1105H0L40.0001 77.284L80 33.1105H62.9532ZM10.5422 37.7864H21.7226V7.39201H58.2773V37.7864H69.4576L40.0001 70.3176L10.5422 37.7864Z" fill="white"/>
<path d="M44.9814 36.0592C43.87 35.2177 43.2159 34.8779 41.9679 34.2541L40.2721 33.3746C39.9764 33.2128 39.6109 32.9615 39.1492 32.6439L39.1045 32.6132C38.2904 31.9772 38.1305 31.4245 38.1305 30.6876C38.1305 29.5867 38.9693 28.6913 40.0005 28.6913C41.0879 28.6913 41.898 29.0131 42.822 30.6591L43.2285 31.3832L46.7536 29.0993L46.4357 28.4739C45.4617 26.5569 44.0703 25.326 42.2938 24.8067V21.9285H38.212V24.7831C35.5819 25.5927 33.796 28.0259 33.796 30.9086C33.796 32.7996 34.4005 34.2173 35.7072 35.3785C36.8775 36.3865 37.7539 36.9225 39.6023 37.7626C42.3831 39.087 43.3216 39.9921 43.3216 41.3489C43.3216 42.2107 43.0943 42.9255 42.656 43.4615C42.0818 44.1352 41.3184 44.4491 40.2529 44.4491C38.2458 44.4491 37.1295 43.2724 36.2712 40.2527L35.9919 39.2702L32.25 41.5347L32.3611 42.0739C33.0229 45.284 35.2367 47.6602 38.2118 48.4149V51.2435H42.2936V48.3909C43.6361 48.0605 44.7959 47.3667 45.7457 46.3248C47.0131 44.9516 47.6557 43.2562 47.6557 41.2856L47.6549 41.2523C47.5556 38.9339 46.7546 37.38 44.9814 36.0592Z" fill="white"/>
</g>
<defs>
<clipPath id="clip0">
<rect width="80" height="80" fill="white"/>
</clipPath>
</defs>
</svg>
