<svg width="80" height="80" viewBox="0 0 80 80" fill="none" xmlns="http://www.w3.org/2000/svg">
<path d="M0 6.25V57.8125H64.2883L80 73.6621V6.25H0ZM75.3125 62.2754L66.2421 53.125H4.6875V10.9375H75.3125V62.2754Z" fill="white"/>
<path d="M33.6178 41.4465L40.0021 39.01L46.3864 41.4465L46.0421 34.621L50.3323 29.3024L43.735 27.5208L40.0021 21.7969L36.2692 27.5208L29.6719 29.3024L33.9614 34.621L33.6178 41.4465ZM39.2178 31.5796L40.0021 30.3772L40.7864 31.5796L42.1719 31.9537L41.2704 33.0707L41.343 34.5044L40.0021 33.9929L38.6611 34.5044L38.7338 33.0707L37.8323 31.9537L39.2178 31.5796Z" fill="white"/>
<path d="M11.3567 41.4467L17.741 39.0101L24.1252 41.4467L23.781 34.6211L28.0712 29.3019L21.4739 27.5209L17.741 21.7964L14.0074 27.5209L7.41016 29.3019L11.7003 34.6211L11.3567 41.4467ZM16.9567 31.5797L17.741 30.3773L18.5253 31.5797L19.9108 31.9539L19.0093 33.0708L19.0819 34.5045L17.741 33.9924L16.4 34.5045L16.4727 33.0708L15.5712 31.9539L16.9567 31.5797Z" fill="white"/>
<path d="M55.8723 41.4465L62.2566 39.01L68.6409 41.4465L68.2966 34.621L72.5868 29.3024L65.9895 27.5208L62.2566 21.7969L58.5231 27.5208L51.9258 29.3024L56.2159 34.6216L55.8723 41.4465ZM61.4723 31.5796L62.2566 30.3772L63.0409 31.5796L64.4264 31.9537L63.5255 33.0707L63.5975 34.5044L62.2566 33.9923L60.9156 34.5044L60.9883 33.0707L60.0868 31.9537L61.4723 31.5796Z" fill="white"/>
</svg>
