<svg width="80" height="65" viewBox="0 0 80 65" fill="none" xmlns="http://www.w3.org/2000/svg">
<path d="M10.9102 7.26953H18.8789V11.957H10.9102V7.26953Z" fill="white"/>
<path d="M10.9102 15.2383H18.8789V19.9258H10.9102V15.2383Z" fill="white"/>
<path d="M36.0156 7.26953H43.9844V11.957H36.0156V7.26953Z" fill="white"/>
<path d="M36.0156 15.2383H43.9844V19.9258H36.0156V15.2383Z" fill="white"/>
<path d="M0 0.160156C0 19.067 0 45.3683 0 64.2227H80C80 60.7614 80 3.81494 80 0.160156C77.4249 0.160156 1.87073 0.160156 0 0.160156ZM29.7919 4.84766H50.2087V22.3477H29.7919V4.84766ZM4.6875 4.84766H25.1044V22.3477H4.6875V4.84766ZM75.3125 59.5352H4.6875V27.0352C11.8158 27.0352 68.2062 27.0352 75.3125 27.0352V59.5352ZM54.8956 22.3477V4.84766H75.3125V22.3477H54.8956Z" fill="white"/>
<path d="M61.1211 7.26953H69.0898V11.957H61.1211V7.26953Z" fill="white"/>
<path d="M61.1211 15.2383H69.0898V19.9258H61.1211V15.2383Z" fill="white"/>
<path d="M42.209 34.782L29.9958 46.9951L24.3837 41.3835L13.4297 52.3375L16.7439 55.6523L24.3837 48.0126L29.9958 53.6248L42.209 41.411L50.8027 50.0048L66.5742 34.2333L63.26 30.9185L50.8027 43.3757L42.209 34.782Z" fill="white"/>
</svg>
