<svg width="80" height="80" viewBox="0 0 80 80" fill="none" xmlns="http://www.w3.org/2000/svg">
<path d="M63.5294 75.2941V47.0588H49.4118V75.2941H44.7059V28.2353H30.5882V75.2941H25.8824V42.3529H11.7647V75.2941H4.70588V0H0V80H80V75.2941H63.5294ZM21.1765 47.0588V54.1176H16.4706V47.0588H21.1765ZM16.4706 75.2941V58.8235H21.1765V75.2941H16.4706ZM40 32.9412V40H35.2941V32.9412H40ZM35.2941 75.2941V44.7059H40V75.2941H35.2941ZM58.8235 51.7647V58.8235H54.1176V51.7647H58.8235ZM54.1176 75.2941V63.5294H58.8235V75.2941H54.1176Z" fill="white"/>
<path d="M37.6462 10.3864L52.9403 25.6805L70.5874 8.03341V11.7647H75.2933V0H63.5286V4.70588H67.2599L52.9403 19.0254L37.6462 3.73129L12.4531 28.9245L15.7805 32.2519L37.6462 10.3864Z" fill="white"/>
</svg>
