<svg width="80" height="80" viewBox="0 0 80 80" fill="none" xmlns="http://www.w3.org/2000/svg">
<path d="M0 2.5V77.5H80V2.5H0ZM4.6875 7.1875H61.25V16.5625H4.6875V7.1875ZM75.3125 72.8125H4.6875V21.25H75.3125V72.8125ZM75.3125 16.5625H65.9375V7.1875H75.3125V16.5625Z" fill="white"/>
<path d="M25.8594 35.3125C21.9823 35.3125 18.8281 38.4667 18.8281 42.3438C18.8281 46.2208 21.9823 49.375 25.8594 49.375C29.7364 49.375 32.8906 46.2208 32.8906 42.3438C32.8906 38.4667 29.7364 35.3125 25.8594 35.3125ZM25.8594 44.6875C24.567 44.6875 23.5156 43.6361 23.5156 42.3438C23.5156 41.0514 24.567 40 25.8594 40C27.1517 40 28.2031 41.0514 28.2031 42.3438C28.2031 43.6361 27.1517 44.6875 25.8594 44.6875Z" fill="white"/>
<path d="M70.625 25.9375H47.0312V30.625H70.625V25.9375Z" fill="white"/>
<path d="M70.625 35.3125H47.0312V40H70.625V35.3125Z" fill="white"/>
<path d="M70.625 63.4375H47.0312V68.125H70.625V63.4375Z" fill="white"/>
<path d="M70.625 44.6875H47.0312V49.375H70.625V44.6875Z" fill="white"/>
<path d="M9.375 25.9375V68.125H42.3438V25.9375H9.375ZM37.6562 63.4375H14.0625V58.75H37.6562V63.4375ZM37.6562 54.0625H14.0625V30.625H37.6562V54.0625Z" fill="white"/>
</svg>
