<svg width="30" height="30" viewBox="0 0 30 30" fill="none" xmlns="http://www.w3.org/2000/svg">
<path d="M25.6066 4.39336C22.7735 1.56029 19.0066 0 15 0C10.9934 0 7.22654 1.56029 4.39336 4.39336C1.56029 7.22654 0 10.9934 0 15C0 19.0066 1.56029 22.7735 4.39336 25.6066C7.22654 28.4397 10.9934 30 15 30C19.0066 30 22.7735 28.4397 25.6066 25.6066C28.4397 22.7735 30 19.0066 30 15C30 10.9934 28.4397 7.22654 25.6066 4.39336ZM15 27.6562C8.02131 27.6562 2.34375 21.9787 2.34375 15C2.34375 8.02131 8.02131 2.34375 15 2.34375C21.9787 2.34375 27.6562 8.02131 27.6562 15C27.6562 21.9787 21.9787 27.6562 15 27.6562Z" fill="#E61444"/>
<path d="M16.1719 13.8281V4.45312H13.8281V16.1719H22.7344V13.8281H16.1719Z" fill="#E61444"/>
</svg>
