<svg width="30" height="30" viewBox="0 0 30 30" fill="none" xmlns="http://www.w3.org/2000/svg">
<g clip-path="url(#clip0)">
<path d="M8.20312 20.625C7.55543 20.625 7.03125 20.1009 7.03125 19.4531V10.5469C7.03125 9.9007 7.55695 9.375 8.20312 9.375C10.1416 9.375 11.7188 7.79789 11.7188 5.85938V3.51562C11.7188 1.57711 10.1416 0 8.20312 0H5.85861C2.62816 0 0 2.62852 0 5.85938V24.1406C0 27.3715 2.62816 30 5.85867 30H8.20312C10.1416 30 11.7188 28.4229 11.7188 26.4844V24.1406C11.7188 22.2021 10.1416 20.625 8.20312 20.625ZM9.375 26.4844C9.375 27.1305 8.8493 27.6562 8.20312 27.6562H5.85867C3.92057 27.6562 2.34375 26.0791 2.34375 24.1406V5.85938C2.34375 3.92086 3.92051 2.34375 5.85938 2.34375H8.20312C8.8493 2.34375 9.375 2.86945 9.375 3.51562V5.85938C9.375 6.50555 8.8493 7.03125 8.20312 7.03125C6.26461 7.03125 4.6875 8.60836 4.6875 10.5469V19.4531C4.6875 21.3961 6.25986 22.9688 8.20312 22.9688C8.8493 22.9688 9.375 23.4945 9.375 24.1406V26.4844Z" fill="#E61444"/>
<path d="M26.4857 6.79688H17.1107C15.1722 6.79688 13.5951 8.37398 13.5951 10.3125V11.2478L7.9668 15L13.5951 18.7522V19.6875C13.5951 21.626 15.1722 23.2031 17.1107 23.2031H26.4857C28.4242 23.2031 30.0013 21.626 30.0013 19.6875V10.3125C30.0013 8.37398 28.4242 6.79688 26.4857 6.79688ZM27.6576 19.6875C27.6576 20.3337 27.1319 20.8594 26.4857 20.8594H17.1107C16.4645 20.8594 15.9388 20.3337 15.9388 19.6875V17.4979L12.1921 15L15.9388 12.5021V10.3125C15.9388 9.66633 16.4645 9.14062 17.1107 9.14062H26.4857C27.1319 9.14062 27.6576 9.66633 27.6576 10.3125V19.6875Z" fill="#E61444"/>
<path d="M22.9688 11.4844H20.625V13.8281H18.2812V16.1719H20.625V18.5156H22.9688V16.1719H25.3125V13.8281H22.9688V11.4844Z" fill="#E61444"/>
</g>
<defs>
<clipPath id="clip0">
<rect width="30" height="30" fill="white"/>
</clipPath>
</defs>
</svg>
