<svg width="30" height="30" viewBox="0 0 30 30" fill="none" xmlns="http://www.w3.org/2000/svg">
<path d="M14.9992 6.44897C11.9282 6.44897 9.42969 8.94747 9.42969 12.0185C9.42969 15.0895 11.9282 17.588 14.9992 17.588C18.0702 17.588 20.5687 15.0895 20.5687 12.0185C20.5687 8.94747 18.0703 6.44897 14.9992 6.44897ZM14.9992 15.2429C13.2212 15.2429 11.7747 13.7964 11.7747 12.0185C11.7747 10.2405 13.2212 8.79401 14.9992 8.79401C16.7772 8.79401 18.2237 10.2405 18.2237 12.0185C18.2237 13.7964 16.7772 15.2429 14.9992 15.2429Z" fill="#E61444"/>
<path d="M15.0009 0C8.37387 0 2.98242 5.3915 2.98242 12.0185V12.3507C2.98242 15.7022 4.90395 19.6079 8.69379 23.9589C11.4411 27.1131 14.1501 29.3125 14.264 29.4046L15.0009 30L15.7378 29.4046C15.8517 29.3125 18.5607 27.1131 21.308 23.9589C25.0978 19.6079 27.0193 15.7023 27.0193 12.3507V12.0185C27.0193 5.3915 21.6279 0 15.0009 0ZM24.6743 12.3507C24.6743 18.0147 17.3764 24.8711 15.0009 26.9524C12.6247 24.8704 5.32746 18.0143 5.32746 12.3507V12.0185C5.32746 6.68461 9.66697 2.3451 15.0009 2.3451C20.3348 2.3451 24.6743 6.68461 24.6743 12.0185V12.3507Z" fill="#E61444"/>
</svg>
