<svg width="90" height="90" viewBox="0 0 90 90" fill="none" xmlns="http://www.w3.org/2000/svg">
<g clip-path="url(#clip0)">
<path d="M87.8728 37.1393L77.7969 35.1549C77.1323 32.9425 76.2444 30.8064 75.1458 28.7725L80.7536 20.3604C81.4506 19.3147 81.3132 17.9221 80.424 17.0329L72.9671 9.57596C72.0786 8.68675 70.6853 8.54874 69.6396 9.24637L61.2275 14.8542C59.1936 13.7556 57.0575 12.8677 54.8451 12.2031L52.8607 2.12723C52.617 0.891266 51.5334 0 50.2734 0H39.7266C38.4666 0 37.383 0.891266 37.1393 2.12723L35.1549 12.2031C32.9425 12.8677 30.8064 13.7556 28.7725 14.8542L20.3604 9.24637C19.3147 8.54942 17.9214 8.68675 17.0329 9.57596L9.57596 17.0329C8.68675 17.9221 8.54942 19.3147 9.24637 20.3604L14.8542 28.7725C13.7556 30.8064 12.8677 32.9425 12.2024 35.1549L2.12654 37.1393C0.891266 37.383 0 38.4666 0 39.7266V50.2734C0 51.5334 0.891266 52.617 2.12723 52.8607L12.2031 54.8451C12.8677 57.0575 13.7556 59.1936 14.8542 61.2275L9.24637 69.6396C8.54942 70.6853 8.68744 72.0779 9.57596 72.9671L17.0329 80.424C17.9214 81.3132 19.3147 81.4506 20.3604 80.7536L28.7725 75.1458C30.8064 76.2444 32.9425 77.1323 35.1549 77.7969L37.1393 87.8728C37.383 89.1087 38.4666 90 39.7266 90H50.2734C51.5334 90 52.617 89.1087 52.8607 87.8728L54.8451 77.7969C57.0575 77.1323 59.1936 76.2444 61.2275 75.1458L69.6396 80.7536C70.6853 81.4506 72.0779 81.3126 72.9671 80.424L80.424 72.9664C81.3132 72.0779 81.4506 70.6853 80.7536 69.6396L75.1458 61.2275C76.2444 59.1936 77.1323 57.0575 77.7969 54.8451L87.8728 52.8607C89.1087 52.617 90 51.5334 90 50.2734V39.7266C90 38.4666 89.1087 37.383 87.8728 37.1393ZM84.7266 48.1057L75.176 49.9871C74.1714 50.1849 73.3715 50.947 73.1264 51.9413C72.4267 54.7717 71.3054 57.4715 69.7927 59.9668C69.2619 60.8423 69.286 61.945 69.8538 62.7965L75.1671 70.7664L70.7664 75.1671L62.7958 69.8538C61.945 69.286 60.8416 69.2626 59.9668 69.7934C57.4709 71.3061 54.771 72.4274 51.9413 73.1264C50.947 73.3722 50.1849 74.1714 49.9864 75.1767L48.1057 84.7266H41.895L40.0136 75.1767C39.8151 74.1714 39.053 73.3722 38.0587 73.1264C35.229 72.4274 32.5291 71.3054 30.0332 69.7927C29.1584 69.2626 28.055 69.286 27.2035 69.8538L19.2336 75.1671L14.8329 70.7664L20.1462 62.7965C20.714 61.945 20.7374 60.8416 20.2073 59.9668C18.6946 57.4715 17.5733 54.771 16.8736 51.9413C16.6278 50.947 15.8286 50.1849 14.8233 49.9871L5.27344 48.1057V41.895L14.8233 40.0136C15.8286 39.8151 16.6278 39.053 16.8736 38.0587C17.5733 35.229 18.6946 32.5291 20.2073 30.0332C20.7374 29.1584 20.714 28.055 20.1462 27.2035L14.8329 19.2336L19.2336 14.8329L27.2035 20.1462C28.055 20.714 29.1584 20.7374 30.0332 20.2073C32.5291 18.6946 35.229 17.5733 38.0587 16.8736C39.053 16.6278 39.8151 15.8286 40.0136 14.8233L41.8943 5.27344H48.105L49.9864 14.8233C50.1849 15.8286 50.947 16.6278 51.9413 16.8736C54.771 17.5726 57.4709 18.6946 59.9668 20.2073C60.8416 20.7374 61.945 20.714 62.7965 20.1462L70.7664 14.8329L75.1671 19.2336L69.8538 27.2035C69.286 28.055 69.2626 29.1584 69.7927 30.0332C71.3054 32.5285 72.4274 35.229 73.1264 38.0587C73.3715 39.053 74.1714 39.8151 75.1767 40.0129L84.7266 41.8943V48.1057Z" fill="white"/>
<path d="M45 21.2695C31.9153 21.2695 21.2695 31.9153 21.2695 45C21.2695 58.0847 31.9153 68.7305 45 68.7305C58.0847 68.7305 68.7305 58.0847 68.7305 45C68.7305 31.9153 58.0847 21.2695 45 21.2695ZM45 63.457C34.8225 63.457 26.543 55.1775 26.543 45C26.543 34.8225 34.8225 26.543 45 26.543C55.1775 26.543 63.457 34.8225 63.457 45C63.457 55.1775 55.1775 63.457 45 63.457Z" fill="white"/>
<path d="M45 31.8164C37.7305 31.8164 31.8164 37.7305 31.8164 45C31.8164 52.2695 37.7305 58.1836 45 58.1836C52.2695 58.1836 58.1836 52.2695 58.1836 45C58.1836 37.7305 52.2695 31.8164 45 31.8164ZM45 52.9102C40.6384 52.9102 37.0898 49.3616 37.0898 45C37.0898 40.6384 40.6384 37.0898 45 37.0898C49.3616 37.0898 52.9102 40.6384 52.9102 45C52.9102 49.3616 49.3616 52.9102 45 52.9102Z" fill="white"/>
</g>
<defs>
<clipPath id="clip0">
<rect width="90" height="90" fill="white"/>
</clipPath>
</defs>
</svg>
