<svg width="90" height="90" viewBox="0 0 90 90" fill="none" xmlns="http://www.w3.org/2000/svg">
<path d="M10.5469 14.502H31.6406V19.7754H10.5469V14.502Z" fill="white"/>
<path d="M36.9141 14.502H79.4531V19.7754H36.9141V14.502Z" fill="white"/>
<path d="M31.6406 35.5957H10.5469V51.416H31.6406V35.5957ZM26.3672 46.1426H15.8203V40.8691H26.3672V46.1426Z" fill="white"/>
<path d="M10.5469 56.6895H26.3672V61.9629H10.5469V56.6895Z" fill="white"/>
<path d="M90 3.95508H0V75.6364H44.4315C45.1339 76.594 45.7397 77.6245 46.2368 78.714C47.4203 81.308 49.21 83.6357 51.412 85.4453L52.1415 86.0449H76.8164V75.6364H90V3.95508ZM71.543 72.2109V80.7715H54.0789C52.8045 79.5702 51.7607 78.1174 51.0342 76.525C49.3059 72.7365 46.569 69.4951 43.1197 67.1512L40.3116 65.2431C39.109 64.4259 38.7956 62.7827 39.6127 61.5802C40.4295 60.3777 42.0731 60.0641 43.2758 60.8813L46.0837 62.7894C46.9916 63.4064 47.8786 64.0898 48.7199 64.8209L53.0859 68.6141V33.0687C53.0859 31.5935 54.2347 30.3622 55.6467 30.3233C56.3653 30.3047 57.0466 30.5684 57.561 31.0688C58.0758 31.5698 58.3594 32.2409 58.3594 32.959V50.6798L72.3767 55.3523C73.4551 55.7118 74.1797 56.717 74.1797 57.8536V64.1561C74.1797 66.8006 73.4177 69.358 71.9761 71.5518L71.543 72.2109ZM84.7266 70.3629H78.4025C79.0952 68.3837 79.4531 66.2897 79.4531 64.1559V57.8535C79.4531 54.4435 77.2796 51.4276 74.0443 50.3492L63.6328 46.8787V40.8691H79.4531V35.5957H63.6328V32.959C63.6328 32.0451 63.4783 31.1572 63.184 30.3223H79.4531V25.0488H10.5469V30.3223H48.3001C47.9856 31.182 47.8125 32.1075 47.8125 33.0687V35.5957H36.9141V40.8691H47.8125V57.5884L46.2398 56.5196C42.6324 54.068 37.7031 55.0086 35.2512 58.616C34.0636 60.3635 33.6277 62.469 34.0237 64.5446C34.4196 66.6202 35.6001 68.417 37.3477 69.6046L38.4637 70.3629H5.27344V9.22852H84.7266V70.3629Z" fill="white"/>
</svg>
