<svg width="55" height="55" viewBox="0 0 55 55" fill="none" xmlns="http://www.w3.org/2000/svg">
<path d="M55 27.5C55 12.3106 42.6894 0 27.5 0C12.3106 0 0 12.3106 0 27.5C0 41.2286 10.0547 52.6045 23.2031 54.667V35.4492H16.2206V27.5H23.2031V21.4414C23.2031 14.5502 27.3067 10.7422 33.5908 10.7422C36.5986 10.7422 39.7461 11.2793 39.7461 11.2793V18.0469H36.2764C32.8603 18.0469 31.7969 20.1685 31.7969 22.3438V27.5H39.4238L38.2046 35.4492H31.7969V54.667C44.9453 52.6045 55 41.2286 55 27.5Z" fill="#1877F2"/>
<path d="M38.2027 35.4492L39.4219 27.5H31.795V22.3438C31.795 20.1685 32.8584 18.0469 36.2745 18.0469H39.7442V11.2793C39.7442 11.2793 36.5967 10.7422 33.5889 10.7422C27.3048 10.7422 23.2012 14.5502 23.2012 21.4414V27.5H16.2188V35.4492H23.2012V54.667C24.603 54.8873 26.0372 55 27.4981 55C28.959 55 30.3932 54.8873 31.795 54.667V35.4492H38.2027Z" fill="white"/>
</svg>
