<svg width="90" height="90" viewBox="0 0 90 90" fill="none" xmlns="http://www.w3.org/2000/svg">
<path d="M71.0015 0V5.51021H77.2171L65.0914 17.0079C60.7986 12.6151 54.8128 9.88348 48.2002 9.88348C39.3052 9.88348 31.5434 14.825 27.5131 22.1064C27.1678 22.0913 26.8208 22.0822 26.4717 22.0822C13.4432 22.0822 2.84375 32.6816 2.84375 45.7103C2.84375 57.8069 11.9816 67.8078 23.7165 69.1768V76.4993H15.4677V82.0095H23.7169V90H29.2271V82.0093H37.8363V76.4991H29.2271V69.1766C36.9523 68.2754 43.5512 63.6337 47.1591 57.1152C47.5043 57.1303 47.8511 57.1395 48.2001 57.1395C61.2288 57.1395 71.8282 46.54 71.8282 33.5115C71.8282 29.0841 70.6032 24.9379 68.4759 21.3924L81.6452 8.90525V15.7489H87.1555V0H71.0015ZM26.4721 63.8279C16.4819 63.8279 8.35432 55.7003 8.35432 45.71C8.35432 36.109 15.8611 28.2299 25.3132 27.6304C24.8296 29.5112 24.5722 31.4817 24.5722 33.5115C24.5722 44.1399 31.6267 53.1508 41.2991 56.1103C38.0179 60.7743 32.5953 63.8279 26.4721 63.8279ZM43.7771 51.082C35.918 49.1027 30.0826 41.9762 30.0826 33.5115C30.0826 31.6419 30.3674 29.8375 30.8956 28.1394C38.7546 30.1187 44.59 37.2454 44.59 45.7102C44.59 47.5798 44.3051 49.384 43.7771 51.082ZM49.3593 51.5909C49.8429 49.7101 50.1002 47.7397 50.1002 45.71C50.1002 35.0815 43.0458 26.0706 33.3736 23.111C36.6547 18.4472 42.0776 15.3933 48.2006 15.3933C58.1909 15.3933 66.3185 23.5209 66.3185 33.5113C66.3182 43.1123 58.8114 50.9915 49.3593 51.5909Z" fill="white"/>
</svg>
