<svg width="90" height="90" viewBox="0 0 90 90" fill="none" xmlns="http://www.w3.org/2000/svg">
<g clip-path="url(#clip0)">
<path d="M45 0C25.6148 0 9.84375 15.7711 9.84375 35.1562C9.84375 48.559 18.139 62.0821 26.6548 72.4493C34.8195 82.3887 42.8701 89.0759 43.2088 89.3558C44.2484 90.2148 45.7516 90.2148 46.7912 89.3558C56.6919 81.1782 68.6668 67.5002 74.8056 55.2226C78.3561 48.1219 80.1562 41.3706 80.1562 35.1562C80.1562 15.7711 64.3852 0 45 0V0ZM45 83.4562C38.3472 77.4921 15.4688 55.4977 15.4688 35.1562C15.4688 18.8726 28.7163 5.625 45 5.625C61.2837 5.625 74.5312 18.8726 74.5312 35.1562C74.5312 55.4977 51.6523 77.4925 45 83.4562Z" fill="white"/>
<path d="M45 11.25C31.818 11.25 21.0938 21.9744 21.0938 35.1562C21.0938 43.4004 25.2886 50.6832 31.6557 54.9824C31.7668 55.0682 31.8844 55.1461 32.0085 55.2148C39.7974 60.2768 49.9908 60.4144 57.9915 55.2148C58.1156 55.1459 58.2332 55.0682 58.3443 54.9824C64.7114 50.6832 68.9062 43.4004 68.9062 35.1562C68.9062 21.9744 58.182 11.25 45 11.25ZM36.4055 51.2872L36.6432 49.5046C37.1997 45.3333 40.7923 42.1875 45 42.1875C49.2077 42.1875 52.8003 45.3333 53.3568 49.5044L53.5947 51.2872C48.2537 54.1441 41.7888 54.167 36.4055 51.2872ZM42.1875 33.75V30.9375C42.1875 29.3868 43.4493 28.125 45 28.125C46.5507 28.125 47.8125 29.3868 47.8125 30.9375V33.75C47.8125 35.3007 46.5507 36.5625 45 36.5625C43.4493 36.5625 42.1875 35.3007 42.1875 33.75ZM58.6543 47.2976C57.7287 43.5001 55.2669 40.3363 52.0044 38.4492C53.689 35.9459 53.4375 33.8854 53.4375 30.9375C53.4375 26.2849 49.6524 22.5 45 22.5C40.3476 22.5 36.5625 26.2849 36.5625 30.9375C36.5625 33.9005 36.3096 35.9439 37.9958 38.4492C34.7333 40.3365 32.2713 43.5002 31.3458 47.2978C20.9508 35.6205 29.1779 16.875 45 16.875C60.8222 16.875 69.0492 35.6205 58.6543 47.2976Z" fill="white"/>
</g>
<defs>
<clipPath id="clip0">
<rect width="90" height="90" fill="white"/>
</clipPath>
</defs>
</svg>
