<svg width="90" height="90" viewBox="0 0 90 90" fill="none" xmlns="http://www.w3.org/2000/svg">
<path d="M27.2696 66.6527L23.0117 70.4224C24.3675 71.9478 25.8404 73.3648 27.4173 74.6604L31.0166 70.2606C29.6741 69.159 28.4212 67.9526 27.2696 66.6527Z" fill="white"/>
<path d="M21.6744 57.87L16.457 60.1097C17.2637 61.9896 18.2216 63.8008 19.3212 65.5258L24.1099 62.4828C23.176 61.0127 22.3615 59.4703 21.6744 57.87Z" fill="white"/>
<path d="M70.8936 11.8447C65.0567 8.46049 58.4298 6.6773 51.6827 6.67553C32.4928 6.7064 16.2802 20.9178 13.7361 39.9385L4.01381 30.2162L0 34.23L16.2 50.43L32.4 34.23L28.3862 30.2162L19.6063 38.9847C22.9422 21.2863 39.994 9.64331 57.6924 12.9792C75.3909 16.3151 87.0338 33.3669 83.6979 51.0651C80.362 68.7634 63.3102 80.4067 45.6118 77.0706C41.9839 76.3869 38.4984 75.0919 35.3039 73.241L32.4511 78.1489C50.7605 88.7645 74.2089 82.5273 84.8245 64.2179C95.4402 45.9086 89.203 22.4602 70.8936 11.8447Z" fill="white"/>
<path d="M47.4258 19.4493V50.6741L59.9157 60.0416L63.322 55.4998L53.103 47.8355V19.4493H47.4258Z" fill="white"/>
</svg>
