<svg width="55" height="55" viewBox="0 0 55 55" fill="none" xmlns="http://www.w3.org/2000/svg">
<circle cx="27.5" cy="27.5" r="27.5" fill="#FF3DB1"/>
<mask id="mask0" style="mask-type:alpha" maskUnits="userSpaceOnUse" x="5" y="5" width="46" height="46">
<path fill-rule="evenodd" clip-rule="evenodd" d="M5 27.7852C5 15.2013 15.2013 5 27.7852 5C40.3691 5 50.5703 15.2013 50.5703 27.7852C50.5703 40.3691 40.3691 50.5703 27.7852 50.5703C15.2013 50.5703 5 40.3691 5 27.7852Z" fill="white"/>
</mask>
<g mask="url(#mask0)">
<path fill-rule="evenodd" clip-rule="evenodd" d="M27.786 15.6333C24.4857 15.6333 24.0715 15.6477 22.7753 15.7067C21.4816 15.766 20.5985 15.9708 19.8258 16.2713C19.0266 16.5817 18.3486 16.9969 17.6731 17.6726C16.9972 18.3481 16.582 19.026 16.2706 19.8251C15.9693 20.598 15.7642 21.4813 15.706 22.7745C15.648 24.0707 15.6328 24.4852 15.6328 27.7855C15.6328 31.0858 15.6475 31.4988 15.7062 32.795C15.7657 34.0887 15.9705 34.9718 16.2708 35.7444C16.5814 36.5437 16.9966 37.2217 17.6724 37.8972C18.3476 38.5731 19.0256 38.9893 19.8243 39.2997C20.5975 39.6002 21.4808 39.8051 22.7743 39.8643C24.0705 39.9233 24.4844 39.9377 27.7845 39.9377C31.0851 39.9377 31.498 39.9233 32.7943 39.8643C34.088 39.8051 34.972 39.6002 35.7452 39.2997C36.5442 38.9893 37.2212 38.5731 37.8964 37.8972C38.5724 37.2217 38.9876 36.5437 39.299 35.7447C39.5977 34.9718 39.8028 34.0885 39.8636 32.7953C39.9218 31.499 39.937 31.0858 39.937 27.7855C39.937 24.4852 39.9218 24.071 39.8636 22.7747C39.8028 21.481 39.5977 20.598 39.299 19.8253C38.9876 19.026 38.5724 18.3481 37.8964 17.6726C37.2204 16.9966 36.5445 16.5814 35.7445 16.2713C34.9698 15.9708 34.0862 15.766 32.7925 15.7067C31.4963 15.6477 31.0836 15.6333 27.7822 15.6333H27.786ZM26.6924 17.8234C26.9041 17.823 27.1318 17.8231 27.3776 17.8232L27.7826 17.8234C31.0272 17.8234 31.4118 17.835 32.6931 17.8932C33.8779 17.9474 34.521 18.1454 34.9494 18.3117C35.5165 18.532 35.9208 18.7953 36.3458 19.2206C36.7712 19.6459 37.0345 20.051 37.2552 20.6181C37.4216 21.046 37.6198 21.689 37.6737 22.8739C37.732 24.1549 37.7446 24.5397 37.7446 27.7828C37.7446 31.026 37.732 31.4108 37.6737 32.6918C37.6196 33.8767 37.4216 34.5197 37.2552 34.9476C37.035 35.5147 36.7712 35.9185 36.3458 36.3436C35.9205 36.7689 35.5167 37.0322 34.9494 37.2525C34.5215 37.4195 33.8779 37.617 32.6931 37.6712C31.4121 37.7294 31.0272 37.7421 27.7826 37.7421C24.5377 37.7421 24.1531 37.7294 22.8721 37.6712C21.6872 37.6165 21.0442 37.4185 20.6156 37.2522C20.0485 37.0319 19.6434 36.7686 19.2181 36.3433C18.7927 35.918 18.5294 35.5139 18.3087 34.9466C18.1423 34.5187 17.9441 33.8757 17.8902 32.6908C17.832 31.4098 17.8203 31.025 17.8203 27.7798C17.8203 24.5347 17.832 24.1519 17.8902 22.8708C17.9444 21.686 18.1423 21.0429 18.3087 20.6146C18.5289 20.0475 18.7927 19.6424 19.2181 19.2171C19.6434 18.7917 20.0485 18.5284 20.6156 18.3077C21.0439 18.1406 21.6872 17.9431 22.8721 17.8887C23.9931 17.838 24.4276 17.8228 26.6924 17.8203V17.8234ZM32.8131 21.2987C32.8131 20.4933 33.4663 19.8409 34.2714 19.8409V19.8404C35.0765 19.8404 35.7296 20.4936 35.7296 21.2987C35.7296 22.1037 35.0765 22.7569 34.2714 22.7569C33.4663 22.7569 32.8131 22.1037 32.8131 21.2987ZM27.7873 21.5447C24.341 21.5448 21.5469 24.339 21.5469 27.7853C21.5469 31.2318 24.3411 34.0247 27.7875 34.0247C31.234 34.0247 34.0272 31.2318 34.0272 27.7853C34.0272 24.3389 31.2337 21.5447 27.7873 21.5447ZM31.8361 27.7853C31.8361 25.548 30.0224 23.7346 27.7854 23.7346C25.5481 23.7346 23.7346 25.548 23.7346 27.7853C23.7346 30.0223 25.5481 31.836 27.7854 31.836C30.0224 31.836 31.8361 30.0223 31.8361 27.7853Z" fill="white"/>
</g>
</svg>
