<svg width="90" height="90" viewBox="0 0 90 90" fill="none" xmlns="http://www.w3.org/2000/svg">
<g clip-path="url(#clip0)">
<path d="M79.5905 37.1407H65.1689C66.2984 35.5793 67.2769 33.9444 68.0034 32.2655C68.9193 30.1452 69.3904 28.0632 69.4014 26.0761C69.4254 22.0867 67.9278 18.2785 65.2945 15.6294C63.0526 13.3745 60.1639 12.1324 57.1605 12.1324C53.6415 12.1324 50.384 13.8455 48.1139 16.6807C45.8439 13.8455 42.5864 12.1324 39.0674 12.1324C35.7186 12.1324 32.5978 13.6382 30.279 16.3703C28.0735 18.97 26.8471 22.4053 26.8258 26.0445C26.8142 28.0385 27.2687 30.1273 28.1758 32.2539C28.894 33.9368 29.8704 35.5759 31 37.1407H17.2052C16.2604 37.1407 15.3877 37.6461 14.9173 38.4666L7.52831 51.3646C6.62674 52.9377 6.63155 54.8136 7.54067 56.3833C8.44499 57.9434 10.0586 58.8752 11.8569 58.8752H17.1661L17.9166 72.1013C17.9029 74.0693 18.7433 75.926 20.234 77.21C21.7275 78.4975 23.6913 79.0495 25.6311 78.7302L31.3055 77.9941L31.3488 87.2C31.3556 88.6509 32.5339 89.8244 33.9855 89.8244H66.4612C67.9175 89.8244 69.0979 88.6434 69.0979 87.1877V67.3861C77.3658 61.9973 81.7802 52.7489 82.2259 39.8688C82.2506 39.154 81.9842 38.4598 81.487 37.9455C80.9906 37.4312 80.306 37.1407 79.5905 37.1407ZM39.0674 17.4058C41.9499 17.4058 44.5715 19.6765 45.5891 23.0562C45.9249 24.1706 46.9508 24.9328 48.1139 24.9328C49.2771 24.9328 50.303 24.1706 50.6387 23.0562C51.6564 19.6765 54.2773 17.4058 57.1605 17.4058C58.7494 17.4058 60.3102 18.0952 61.5544 19.347C63.2051 21.008 64.1437 23.449 64.1279 26.0445C64.1211 27.3189 63.7956 28.7073 63.1625 30.1726C61.9918 32.8808 59.9408 35.523 57.6769 37.8768C57.6302 37.9207 57.5869 37.9668 57.5444 38.0141C54.0782 41.5874 50.1451 44.4762 48.1071 45.8817C46.8217 45.0028 44.783 43.5375 42.5761 41.6733C37.8225 37.6585 34.5197 33.6855 33.0256 30.1843C32.4035 28.7252 32.0917 27.3436 32.0993 26.0761C32.1274 21.295 35.2531 17.4058 39.0674 17.4058ZM73.9429 53.9471C71.9639 58.1919 69.0869 61.3581 65.1462 63.6254C64.3284 64.0957 63.8244 64.9678 63.8244 65.9112V84.5509H36.6099L36.5748 77.0734L41.5585 75.8813C44.8235 75.1006 47.5708 72.9294 49.0959 69.9219C50.7198 66.7208 52.7838 62.5295 52.8044 62.4876C52.9891 62.1127 53.0763 61.7151 53.0757 61.3237C53.0757 60.3508 52.5346 59.4162 51.6035 58.9576C50.2968 58.3142 48.7161 58.8518 48.0734 60.1585C48.0528 60.2004 46.0025 64.3628 44.393 67.5372C43.569 69.1604 42.0893 70.3325 40.3329 70.7521L33.4506 72.398L24.9018 73.5076C24.8641 73.5124 24.8256 73.5179 24.7879 73.5248C24.244 73.6195 23.8581 73.3723 23.6769 73.2158C23.4887 73.0537 23.1763 72.6953 23.19 72.111C23.1921 72.0395 23.1907 71.9688 23.1866 71.8974L22.3516 57.1736C22.4622 56.8825 22.5226 56.568 22.5226 56.2384C22.5226 54.7821 21.3416 53.6017 19.8859 53.6017H12.3245L18.7337 42.4142H35.5703C40.7373 47.5414 46.3582 51.0584 46.7255 51.2863C47.1513 51.5493 47.6326 51.6812 48.1139 51.6812C48.598 51.6812 49.0828 51.5479 49.5099 51.2815C49.8738 51.0542 55.4535 47.5379 60.6034 42.4149H76.7904C76.4024 46.8478 75.4473 50.7178 73.9429 53.9471Z" fill="white"/>
<path d="M48.2539 6.99281C49.7103 6.99281 50.8906 5.81247 50.8906 4.35609V2.46094C50.8906 1.00456 49.7103 -0.175781 48.2539 -0.175781C46.7975 -0.175781 45.6172 1.00456 45.6172 2.46094V4.35609C45.6172 5.81247 46.7975 6.99281 48.2539 6.99281Z" fill="white"/>
<path d="M23.9934 14.0392C24.5083 14.5555 25.184 14.8137 25.8604 14.8137C26.534 14.8137 27.2076 14.5576 27.7219 14.044C28.7532 13.0161 28.7553 11.3468 27.7273 10.3155L26.0464 8.63047C25.0185 7.59913 23.3486 7.59707 22.3179 8.62567C21.2866 9.65358 21.2845 11.3228 22.3124 12.3542L23.9934 14.0392Z" fill="white"/>
<path d="M70.9378 14.8137C71.6135 14.8137 72.2899 14.5555 72.8048 14.0392L74.4851 12.3542C75.513 11.3228 75.5109 9.65358 74.4796 8.62567C73.4489 7.59707 71.779 7.59913 70.7511 8.63047L69.0709 10.3155C68.0423 11.3468 68.0443 13.0161 69.0757 14.044C69.5906 14.5576 70.2642 14.8137 70.9378 14.8137Z" fill="white"/>
<path d="M15.9805 31.8618H17.9875C19.4439 31.8618 20.6243 30.6808 20.6243 29.2251C20.6243 27.7687 19.4439 26.5884 17.9875 26.5884H15.9805C14.5241 26.5884 13.3438 27.7687 13.3438 29.2251C13.3438 30.6808 14.5241 31.8618 15.9805 31.8618Z" fill="white"/>
<path d="M80.5644 26.5884H78.5195C77.0632 26.5884 75.8828 27.7687 75.8828 29.2251C75.8828 30.6808 77.0632 31.8618 78.5195 31.8618H80.5644C82.0207 31.8618 83.2011 30.6808 83.2011 29.2251C83.2011 27.7687 82.0207 26.5884 80.5644 26.5884Z" fill="white"/>
</g>
<defs>
<clipPath id="clip0">
<rect width="90" height="90" fill="white"/>
</clipPath>
</defs>
</svg>
