<svg width="55" height="55" viewBox="0 0 55 55" fill="none" xmlns="http://www.w3.org/2000/svg">
<path d="M0 27.5C0 12.3122 12.3122 0 27.5 0C42.6878 0 55 12.3122 55 27.5C55 42.6878 42.6878 55 27.5 55C12.3122 55 0 42.6878 0 27.5Z" fill="#F68634"/>
<path d="M30.4745 33.7337L34.5843 37.7012C35.4262 38.5122 35.4262 39.8293 34.5843 40.6411C33.7432 41.453 32.3801 41.453 31.5399 40.6411L27.4992 36.7424L23.4621 40.6411C23.0411 41.0466 22.4895 41.2496 21.9379 41.2496C21.3872 41.2496 20.8365 41.0466 20.4155 40.6411C19.5745 39.8293 19.5745 38.513 20.4147 37.7012L24.5248 33.7337C23.0284 33.4046 21.5852 32.8323 20.2559 32.0272C19.2499 31.4149 18.9477 30.1322 19.5816 29.1603C20.2136 28.1871 21.5429 27.8941 22.5507 28.5064C25.5603 30.3339 29.4373 30.3343 32.4487 28.5064C33.4564 27.8941 34.7853 28.1871 35.4187 29.1603C36.0526 30.1314 35.7495 31.4149 34.7435 32.0272C33.4142 32.8331 31.971 33.4046 30.4745 33.7337Z" fill="white"/>
<path fill-rule="evenodd" clip-rule="evenodd" d="M20.1289 20.8468C20.1289 24.7591 23.4262 27.9415 27.4805 27.9415C31.5357 27.9415 34.8321 24.7591 34.8321 20.8468C34.8321 16.9332 31.5357 13.75 27.4805 13.75C23.4262 13.75 20.1289 16.9332 20.1289 20.8468ZM30.5242 20.8468C30.5242 19.2265 29.1588 17.909 27.4803 17.909C25.803 17.909 24.4363 19.2265 24.4363 20.8468C24.4363 22.4658 25.803 23.7842 27.4803 23.7842C29.1588 23.7842 30.5242 22.4658 30.5242 20.8468Z" fill="white"/>
</svg>
