<svg width="90" height="90" viewBox="0 0 90 90" fill="none" xmlns="http://www.w3.org/2000/svg">
<path d="M29.7896 68.2866C32.024 65.9234 33.3984 62.7393 33.3984 59.2383C33.3984 51.9688 27.4843 46.0547 20.2148 46.0547C12.9454 46.0547 7.03125 51.9688 7.03125 59.2383C7.03125 62.7393 8.40568 65.9234 10.64 68.2866C4.41879 70.7173 0 76.776 0 83.8477V87.3633C0 88.8195 1.18055 90 2.63672 90H37.793C39.2491 90 40.4297 88.8195 40.4297 87.3633V83.8477C40.4297 76.776 36.0109 70.7173 29.7896 68.2866ZM20.2148 51.3281C24.5765 51.3281 28.125 54.8766 28.125 59.2383C28.125 63.5999 24.5765 67.1484 20.2148 67.1484C15.8532 67.1484 12.3047 63.5999 12.3047 59.2383C12.3047 54.8766 15.8532 51.3281 20.2148 51.3281ZM35.1562 84.7266H5.27344V83.8477C5.27344 77.5475 10.399 72.4219 16.6992 72.4219H23.7305C30.0306 72.4219 35.1562 77.5475 35.1562 83.8477V84.7266Z" fill="white"/>
<path d="M79.36 68.2866C81.5943 65.9236 82.9688 62.7393 82.9688 59.2383C82.9688 51.9688 77.0546 46.0547 69.7852 46.0547C62.5157 46.0547 56.6016 51.9688 56.6016 59.2383C56.6016 62.7393 57.976 65.9236 60.2104 68.2866C53.9891 70.7175 49.5703 76.776 49.5703 83.8477V87.3633C49.5703 88.8195 50.7509 90 52.207 90H87.3633C88.8195 90 90 88.8195 90 87.3633V83.8477C90 76.776 85.5812 70.7175 79.36 68.2866ZM69.7852 51.3281C74.1468 51.3281 77.6953 54.8766 77.6953 59.2383C77.6953 63.5999 74.1468 67.1484 69.7852 67.1484C65.4235 67.1484 61.875 63.5999 61.875 59.2383C61.875 54.8766 65.4235 51.3281 69.7852 51.3281ZM84.7266 84.7266H54.8438V83.8477C54.8438 77.5475 59.9694 72.4219 66.2695 72.4219H73.3008C79.601 72.4219 84.7266 77.5475 84.7266 83.8477V84.7266Z" fill="white"/>
<path d="M87.3633 0H2.63672C1.18055 0 0 1.18055 0 2.63672V46.582C0 48.9312 2.8401 50.1075 4.50123 48.4465L12.5179 40.4297H77.4821L85.4988 48.4465C87.1599 50.1075 90 48.9312 90 46.582V2.63672C90 1.18055 88.8195 0 87.3633 0ZM42.3633 25.4883V35.1562H11.4258C10.7265 35.1562 10.0557 35.434 9.56127 35.9285L5.27344 40.2165V5.27344H42.3633V14.9414C42.3633 16.3976 43.5438 17.5781 45 17.5781H50.197C51.615 17.5781 52.837 18.6657 52.9068 20.082C52.9815 21.596 51.7714 22.8516 50.2734 22.8516H45C43.5438 22.8516 42.3633 24.0321 42.3633 25.4883ZM84.7266 40.2165L80.4386 35.9286C79.9441 35.434 79.2735 35.1562 78.5742 35.1562H47.6367V28.125H50.1332C54.5593 28.125 58.2581 24.5029 58.1824 20.0774C58.1087 15.7788 54.5892 12.3047 50.2734 12.3047H47.6367V5.27344H84.7266V40.2165Z" fill="white"/>
</svg>
