<svg width="90" height="90" viewBox="0 0 90 90" fill="none" xmlns="http://www.w3.org/2000/svg">
<g clip-path="url(#clip0)">
<path d="M81.1313 18.922C88.0279 12.0528 83.0827 -0.0231771 73.2421 -0.000149723C63.4018 -0.0233528 58.4562 12.0548 65.3532 18.922C64.8209 19.2073 64.3057 19.5202 63.8097 19.8594C52.8202 12.2356 37.18 12.2358 26.1907 19.8594C25.6946 19.5204 25.1794 19.2073 24.6472 18.922C31.5434 12.0528 26.5983 -0.0231771 16.7578 -0.000149723C6.91752 -0.0233528 1.97174 12.0548 8.86887 18.922C3.59525 21.748 0 27.3133 0 33.7029V39.3513C0 40.8075 1.18055 41.988 2.63672 41.988H11.8023C9.18352 55.8793 16.361 70.7569 28.8102 77.3858C28.4405 78.7673 28.2422 80.2181 28.2422 81.7146V87.3631C28.2422 88.8193 29.4228 89.9998 30.879 89.9998H59.1212C60.5774 89.9998 61.7579 88.8193 61.7579 87.3631V81.7148C61.7579 80.2183 61.5596 78.7674 61.19 77.386C73.6397 70.7565 80.8165 55.8795 78.1979 41.9882H87.3633C88.8195 41.9882 90 40.8076 90 39.3515V33.7031C90 27.3133 86.4047 21.748 81.1313 18.922ZM73.2422 5.27329C76.4603 5.27329 79.0782 7.89137 79.0782 11.1092C78.7577 18.8513 67.7257 18.849 67.4063 11.1092C67.4063 7.8912 70.0242 5.27329 73.2422 5.27329ZM16.7578 5.27329C19.9756 5.27329 22.5937 7.89137 22.5937 11.1092C22.2731 18.8513 11.2412 18.849 10.9218 11.1092C10.9218 7.8912 13.5399 5.27329 16.7578 5.27329ZM5.27344 36.7148V33.7031C5.90607 18.4637 27.6152 18.4755 28.2422 33.7031V36.7148H5.27344ZM56.4843 84.7264H33.5157V81.7148C34.1483 66.4754 55.8575 66.4872 56.4845 81.7148V84.7264H56.4843ZM39.1641 59.1209C39.1641 55.9029 41.7822 53.2849 45 53.2849C52.7421 53.6056 52.74 64.6374 45 64.9568C41.782 64.9568 39.1641 62.3389 39.1641 59.1209ZM59.0231 72.5508C57.4843 70.2039 55.3732 68.265 52.8892 66.9338C59.786 60.0647 54.8406 47.9885 45 48.0117C35.1598 47.9885 30.214 60.0666 37.1111 66.9338C34.6271 68.265 32.516 70.2041 30.9772 72.5508C20.3994 66.6505 14.5686 53.9083 17.1714 41.9882H30.8791C32.3353 41.9882 33.5159 40.8076 33.5159 39.3515V33.7031C33.5159 29.9113 32.2494 26.4103 30.118 23.599C38.9412 18.0118 51.0595 18.012 59.8825 23.599C57.7512 26.4103 56.4847 29.9113 56.4847 33.7031V39.3515C56.4847 40.8076 57.6652 41.9882 59.1214 41.9882H72.8292C75.4314 53.9093 69.6011 66.6496 59.0231 72.5508ZM84.7266 36.7148H61.7578V33.7031C62.3904 18.4637 84.0995 18.4755 84.7266 33.7031V36.7148Z" fill="white"/>
</g>
<defs>
<clipPath id="clip0">
<rect width="90" height="90" fill="white"/>
</clipPath>
</defs>
</svg>
