<svg width="55" height="55" viewBox="0 0 55 55" fill="none" xmlns="http://www.w3.org/2000/svg">
<circle cx="27.5" cy="27.5" r="27.5" fill="#4680C2"/>
<path fill-rule="evenodd" clip-rule="evenodd" d="M39.4117 22.0409C39.597 21.4538 39.4117 21.0267 38.5909 21.0267H35.8638C35.1754 21.0267 34.8577 21.4003 34.6723 21.8008C34.6723 21.8008 33.269 25.2171 31.3097 27.4324C30.6743 28.0729 30.383 28.2865 30.0389 28.2865C29.8535 28.2865 29.6153 28.0729 29.6153 27.4858V22.0142C29.6153 21.3203 29.4034 21 28.8209 21H24.5317C24.108 21 23.8433 21.3203 23.8433 21.6406C23.8433 22.3079 24.8229 22.468 24.9288 24.3363V28.3932C24.9288 29.2741 24.77 29.4342 24.4258 29.4342C23.4991 29.4342 21.2486 25.9911 19.8982 22.0676C19.6334 21.2936 19.3687 21 18.6803 21H15.9267C15.1324 21 15 21.3737 15 21.7741C15 22.4947 15.9267 26.1246 19.3157 30.9289C21.5663 34.2117 24.77 35.9733 27.656 35.9733C29.4034 35.9733 29.6153 35.5729 29.6153 34.9057V32.4235C29.6153 31.6228 29.7741 31.4894 30.3301 31.4894C30.7273 31.4894 31.4421 31.7028 33.0572 33.2776C34.9106 35.1459 35.2283 36 36.2609 36H38.9881C39.7823 36 40.1531 35.5997 39.9412 34.8256C39.7029 34.0516 38.8027 32.9306 37.6377 31.5961C37.0023 30.8488 36.0491 30.0214 35.7579 29.621C35.3607 29.0872 35.4666 28.8737 35.7579 28.3932C35.7314 28.3932 39.0675 23.6424 39.4117 22.0409Z" fill="white"/>
</svg>
