<svg width="55" height="55" viewBox="0 0 55 55" fill="none" xmlns="http://www.w3.org/2000/svg">
<path d="M0 27.5C0 12.3122 12.3122 0 27.5 0C42.6878 0 55 12.3122 55 27.5C55 42.6878 42.6878 55 27.5 55C12.3122 55 0 42.6878 0 27.5Z" fill="#FF0000"/>
<path d="M41.5524 20.709C41.215 19.413 40.221 18.3925 38.9589 18.0462C36.6715 17.4167 27.4987 17.4167 27.4987 17.4167C27.4987 17.4167 18.3259 17.4167 16.0384 18.0462C14.7762 18.3925 13.7822 19.413 13.4449 20.709C12.832 23.0577 12.832 27.9584 12.832 27.9584C12.832 27.9584 12.832 32.8589 13.4449 35.2078C13.7822 36.5038 14.7762 37.5243 16.0384 37.8708C18.3259 38.5001 27.4987 38.5001 27.4987 38.5001C27.4987 38.5001 36.6715 38.5001 38.9589 37.8708C40.221 37.5243 41.215 36.5038 41.5524 35.2078C42.1654 32.8589 42.1654 27.9584 42.1654 27.9584C42.1654 27.9584 42.1654 23.0577 41.5524 20.709Z" fill="white"/>
<path d="M24.75 32.9999V23.8333L32.0833 28.4168L24.75 32.9999Z" fill="#FF0000"/>
</svg>
