<svg width="55" height="55" viewBox="0 0 55 55" fill="none" xmlns="http://www.w3.org/2000/svg">
<path d="M55 27.5C55 42.6878 42.6878 55 27.5 55C12.3122 55 0 42.6878 0 27.5C0 12.3122 12.3122 0 27.5 0C42.6878 0 55 12.3122 55 27.5Z" fill="#F10404"/>
<path d="M40 27.2068V26.6114C35.65 26.3136 33.25 25.7182 31.15 23.783C29.2 21.6989 28.6 19.317 28.3 15H27.7C27.4 19.317 26.8 21.6989 24.85 23.783C22.75 25.7182 20.35 26.3136 16 26.6114V27.3557C20.35 27.6534 22.75 28.2489 24.85 30.1841C26.8 32.2682 27.4 34.65 27.7 38.967H28.45C28.75 34.65 29.35 32.2682 31.3 30.1841C33.25 28.1 35.65 27.5046 40 27.2068Z" fill="white"/>
</svg>
