<svg width="55" height="55" viewBox="0 0 55 55" fill="none" xmlns="http://www.w3.org/2000/svg">
<g opacity="0.5">
<path d="M11.0947 36.9839H36.5076V40.2065H11.0947V36.9839Z" fill="white"/>
<path d="M11.0947 44.3805H36.5076V47.6031H11.0947V44.3805Z" fill="white"/>
<path d="M43.9046 36.9838V0H3.69824V49.6902C3.69824 52.618 6.08021 55 9.008 55H45.9917C48.9195 55 51.3015 52.618 51.3015 49.6902V36.9838H43.9046ZM9.00789 51.7773C7.85708 51.7773 6.92079 50.8411 6.92079 49.6902V3.22266H40.6819V49.6902C40.6819 50.4308 40.8342 51.1364 41.1093 51.7773H9.00789ZM48.0787 49.6902C48.0787 50.8411 47.1424 51.7773 45.9916 51.7773C44.8408 51.7773 43.9045 50.8411 43.9045 49.6902V40.2065H48.0786V49.6902H48.0787Z" fill="white"/>
<path d="M17.6387 21.1171V34.0444L23.801 30.3465L29.9635 34.0444V21.117C31.7132 19.4727 32.8091 17.1403 32.8091 14.5556C32.8091 9.58848 28.7681 5.54749 23.801 5.54749C18.834 5.54749 14.793 9.58848 14.793 14.5556C14.793 17.1405 15.889 19.4728 17.6387 21.1171ZM26.7409 28.3523L23.801 26.5882L20.8613 28.3523V23.0685C21.7833 23.3879 22.7718 23.5636 23.801 23.5636C24.8304 23.5636 25.8189 23.3878 26.7409 23.0684V28.3523ZM23.801 8.77014C26.9911 8.77014 29.5865 11.3655 29.5865 14.5556C29.5865 17.7457 26.9911 20.341 23.801 20.341C20.6109 20.341 18.0156 17.7457 18.0156 14.5556C18.0156 11.3655 20.6109 8.77014 23.801 8.77014Z" fill="white"/>
<path d="M22.1904 12.9443H25.4131V16.167H22.1904V12.9443Z" fill="white"/>
</g>
</svg>
