<svg width="24" height="24" viewBox="0 0 24 24" fill="none" xmlns="http://www.w3.org/2000/svg">
<g clip-path="url(#clip0)">
<path d="M12.0037 5.83813C8.6007 5.83813 5.8457 8.59614 5.8457 11.9961C5.8457 15.3991 8.6037 18.1541 12.0037 18.1541C15.4067 18.1541 18.1617 15.3961 18.1617 11.9961C18.1617 8.59314 15.4037 5.83813 12.0037 5.83813ZM12.0037 15.9931C9.7947 15.9931 8.0067 14.2041 8.0067 11.9961C8.0067 9.78814 9.7957 7.99914 12.0037 7.99914C14.2117 7.99914 16.0007 9.78814 16.0007 11.9961C16.0017 14.2041 14.2127 15.9931 12.0037 15.9931Z" fill="white"/>
<path d="M16.9482 0.0761191C14.7402 -0.0268809 9.27123 -0.0218809 7.06123 0.0761191C5.11923 0.167119 3.40623 0.636119 2.02523 2.01712C-0.282773 4.32512 0.0122273 7.43512 0.0122273 11.9961C0.0122273 16.6641 -0.247773 19.7021 2.02523 21.9751C4.34223 24.2911 7.49723 23.9881 12.0042 23.9881C16.6282 23.9881 18.2242 23.9911 19.8592 23.3581C22.0822 22.4951 23.7602 20.5081 23.9242 16.9391C24.0282 14.7301 24.0222 9.26212 23.9242 7.05212C23.7262 2.83912 21.4652 0.284119 16.9482 0.0761191ZM20.4432 20.4481C18.9302 21.9611 16.8312 21.8261 11.9752 21.8261C6.97523 21.8261 4.97023 21.9001 3.50723 20.4331C1.82223 18.7561 2.12723 16.0631 2.12723 11.9801C2.12723 6.45512 1.56023 2.47612 7.10523 2.19212C8.37923 2.14712 8.75423 2.13212 11.9612 2.13212L12.0062 2.16212C17.3352 2.16212 21.5162 1.60412 21.7672 7.14812C21.8242 8.41312 21.8372 8.79312 21.8372 11.9951C21.8362 16.9371 21.9302 18.9541 20.4432 20.4481Z" fill="white"/>
<path d="M18.4058 7.034C19.2005 7.034 19.8448 6.38974 19.8448 5.595C19.8448 4.80027 19.2005 4.15601 18.4058 4.15601C17.6111 4.15601 16.9668 4.80027 16.9668 5.595C16.9668 6.38974 17.6111 7.034 18.4058 7.034Z" fill="white"/>
</g>
<defs>
<clipPath id="clip0">
<rect width="24" height="24" fill="white"/>
</clipPath>
</defs>
</svg>
