<svg width="1166" height="231" viewBox="0 0 1166 231" fill="none" xmlns="http://www.w3.org/2000/svg">
<path d="M99.4061 95.2479L58.4368 4.74657H0L72.7285 157.27C63.2007 169.611 48.2739 174.99 28.2656 173.408V226.253C76.5396 228.468 108.616 206.318 128.942 158.219L193.096 4.74657H134.976L99.4061 95.2479Z" fill="#F9F9F9"/>
<path d="M305.828 231C346.48 231 382.685 211.064 402.058 178.471L352.832 149.992C344.257 166.13 326.472 175.623 305.828 175.623C288.043 175.623 273.751 170.244 262.636 159.168C251.838 148.093 246.439 133.537 246.439 115.5C246.439 97.463 251.838 83.2233 262.636 72.1479C273.751 61.0726 288.043 55.3767 305.828 55.3767C326.472 55.3767 344.257 65.1863 352.832 80.6918L402.058 52.5288C392.213 36.3904 378.874 23.7329 361.724 14.2397C344.574 4.74657 325.836 0 305.828 0C272.481 0 244.533 11.0754 222.619 33.226C200.705 55.0603 189.907 82.5904 189.907 115.5C189.907 148.41 200.705 175.94 222.619 198.09C244.533 219.925 272.481 231 305.828 231Z" fill="#F9F9F9"/>
<path d="M409.321 226.253C433.14 228.785 453.148 225.304 470.934 213.596C489.036 201.888 500.152 176.256 500.152 139.866V59.4904H544.615V226.253H601.464V4.74657H443.303V137.334C443.303 168.662 433.14 176.256 409.321 173.408V226.253Z" fill="#F9F9F9"/>
<path d="M723.114 95.2479L682.144 4.74657H623.708L696.436 157.27C686.908 169.611 671.981 174.99 651.973 173.408V226.253C700.247 228.468 732.324 206.318 752.65 158.219L816.803 4.74657H758.684L723.114 95.2479Z" fill="#F9F9F9"/>
<path d="M836.146 4.74657V226.253H892.995V59.4904H967.629V4.74657H836.146Z" fill="#F9F9F9"/>
<path d="M1166 226.253V4.74657H1122.17L1043.73 116.133V4.74657H986.878V226.253H1031.02L1109.47 114.867V226.253H1166Z" fill="#F9F9F9"/>
</svg>
