<svg width="55" height="55" viewBox="0 0 55 55" fill="none" xmlns="http://www.w3.org/2000/svg">
<g opacity="0.5" clip-path="url(#clip0)">
<path d="M46.2859 32.7805C46.5819 31.8167 46.805 30.8214 46.9502 29.8014L49.2172 29.3186C53.1558 28.4798 55.6777 24.593 54.8389 20.6543L53.8066 15.8076L49.5483 16.7146C47.9563 17.0537 46.5554 17.8944 45.5178 19.1138C45.1658 18.2941 44.7604 17.4986 44.3026 16.7348L45.7112 14.9579C46.923 13.4292 47.467 11.5201 47.243 9.5822C47.019 7.64434 46.0537 5.90977 44.5249 4.69793L40.6416 1.61961L37.937 5.03138C36.7251 6.56008 36.1812 8.46924 36.4052 10.4071C36.6247 12.3054 37.5568 14.0073 39.0316 15.2151C42.134 18.2763 43.9126 22.5746 43.9126 27.0174C43.9126 36.0763 36.5427 43.4462 27.4838 43.4462C18.425 43.4462 11.0551 36.0761 11.0551 27.0173C11.0551 22.5168 12.8778 18.2196 16.075 15.1259C17.488 13.9241 18.3805 12.259 18.5945 10.407C18.8186 8.46914 18.2747 6.56008 17.0627 5.03127L14.3581 1.61951L10.4749 4.69782C7.3192 7.19938 6.78709 11.802 9.28865 14.9577L10.6925 16.7286C10.2311 17.4896 9.82248 18.281 9.46778 19.0967C8.43161 17.8864 7.0361 17.0519 5.45155 16.7145L1.19331 15.8075L0.161024 20.6543C-0.67779 24.593 1.84404 28.4798 5.78274 29.3186L8.01684 29.7944C8.16178 30.8149 8.38459 31.8107 8.68052 32.7749C7.14837 32.5362 5.52963 32.7789 4.0665 33.5775L0.244819 35.6632L2.61891 40.0129C3.55349 41.7252 5.0989 42.9712 6.97054 43.5211C7.65254 43.7214 8.34792 43.8206 9.03953 43.8206C10.2459 43.8206 11.4399 43.5186 12.5283 42.9246L14.5535 41.8193C15.1993 42.3842 15.8823 42.9073 16.5981 43.385C15.2104 44.1916 14.1324 45.4249 13.5169 46.9361L11.8747 50.9684L16.464 52.8374C17.3537 53.1998 18.2866 53.3808 19.2193 53.3808C20.1804 53.3808 21.1411 53.1885 22.0535 52.8043C23.8513 52.0471 25.2467 50.6351 25.9825 48.8284L26.8613 46.6708C27.0682 46.6772 27.2756 46.6816 27.4841 46.6816C27.7031 46.6816 27.9209 46.6767 28.1383 46.6696L29.0176 48.8285C29.7534 50.6352 31.1487 52.0472 32.9466 52.8044C33.8591 53.1887 34.8196 53.3809 35.7808 53.3809C36.7134 53.3809 37.6464 53.1999 38.5362 52.8375L43.1255 50.9685L41.4832 46.9362C40.8653 45.4189 39.7809 44.1817 38.385 43.3752C39.1 42.8972 39.7819 42.3736 40.4269 41.8086L42.4718 42.9247C43.5603 43.5188 44.7543 43.8208 45.9606 43.8208C46.652 43.8208 47.3477 43.7215 48.0296 43.5212C49.9012 42.9713 51.4466 41.7253 52.3812 40.013L54.7552 35.6633L50.9335 33.5775C49.4597 32.773 47.8279 32.5329 46.2859 32.7805ZM22.9861 47.6079C22.5763 48.6142 21.799 49.4007 20.7977 49.8225C19.7963 50.2442 18.6906 50.2509 17.6843 49.841L16.0914 49.1922L16.5133 48.1563C16.9231 47.15 17.7003 46.3635 18.7016 45.9417C19.703 45.5199 20.8086 45.5133 21.815 45.9233L23.408 46.5721L22.9861 47.6079ZM38.9087 49.1923L37.3157 49.8411C36.3093 50.2509 35.2037 50.2444 34.2023 49.8226C33.2009 49.4008 32.4238 48.6143 32.0139 47.608L31.5921 46.5722L33.185 45.9234C34.1913 45.5136 35.2969 45.5201 36.2984 45.9418C37.2997 46.3636 38.077 47.1501 38.4868 48.1564L38.9087 49.1923ZM47.6572 21.6433C48.2486 20.7318 49.1596 20.1051 50.2223 19.8789L51.3163 19.6458L51.6746 21.3282C51.901 22.3909 51.6999 23.4782 51.1084 24.3897C50.517 25.3013 49.6061 25.9279 48.5434 26.1542L47.4494 26.3873L47.0911 24.7049C46.8648 23.6421 47.0658 22.5548 47.6572 21.6433ZM40.4724 7.04117L41.1672 6.16472L42.5152 7.23324C43.3667 7.90824 43.9043 8.87442 44.0292 9.95372C44.154 11.0331 43.8511 12.0965 43.1761 12.9479L42.4812 13.8245L41.1334 12.756C39.3754 11.3625 39.0791 8.79882 40.4724 7.04117ZM10.9709 9.95362C11.0957 8.87431 11.6334 7.90813 12.4849 7.23313L13.8329 6.16461L14.5276 7.04106C15.7927 8.63684 15.6647 10.8968 14.3151 12.3424C14.1762 12.4678 14.0394 12.5953 13.9045 12.7244C13.8918 12.7347 13.8797 12.7456 13.8669 12.7557L12.5189 13.8243L11.8242 12.9477C11.1491 12.0964 10.846 11.033 10.9709 9.95362ZM6.45666 26.1541C5.39396 25.9277 4.483 25.3012 3.89158 24.3896C3.30016 23.4781 3.09903 22.3908 3.32539 21.3281L3.68376 19.6457L4.77773 19.8788C5.84043 20.1051 6.7515 20.7317 7.34292 21.6432C7.93434 22.5547 8.13536 23.642 7.9091 24.7048L7.55085 26.3872L6.45666 26.1541ZM10.9782 40.0847C10.0245 40.6053 8.92522 40.7232 7.88258 40.417C6.84004 40.1107 5.97934 39.4167 5.45866 38.4629L4.63463 36.9531L5.61644 36.4172C6.57032 35.8968 7.66958 35.7788 8.71211 36.085C9.75465 36.3912 10.6154 37.0852 11.136 38.039L11.9601 39.5488L10.9782 40.0847ZM49.5413 38.4629C49.0207 39.4167 48.1599 40.1106 47.1173 40.417C46.0748 40.7234 44.9756 40.6053 44.0217 40.0847L43.0399 39.5488L43.8639 38.039C44.3845 37.0852 45.2453 36.3914 46.2878 36.085C47.3304 35.7786 48.4297 35.8967 49.3835 36.4172L50.3653 36.9531L49.5413 38.4629Z" fill="white"/>
<path d="M20.667 29.2983L19.8415 37.6199L27.5006 34.2628L35.1598 37.6195L34.3337 29.2978L39.893 23.0507L31.7233 21.2648L27.4999 14.0472L23.2769 21.2651L15.1074 23.0514L20.667 29.2983ZM25.3533 24.1229L27.5 20.4536L29.6471 24.1228L33.8002 25.0307L30.974 28.2064L31.394 32.4368L27.5004 30.7304L23.6068 32.437L24.0265 28.2066L21.2002 25.031L25.3533 24.1229Z" fill="white"/>
</g>
<defs>
<clipPath id="clip0">
<rect width="55" height="55" fill="white"/>
</clipPath>
</defs>
</svg>
